<svg xmlns="http://www.w3.org/2000/svg" height="200" width="973.333" xml:space="preserve"><path style="fill:#ef3124;fill-opacity:1;fill-rule:nonzero;stroke:none" d="m7042.51 1207.57-248.62-278.601v278.601h-179.91V504.191h179.91v296.09L7060 504.191h232.38v.008l-327.33 368.547 303.59 334.824h-226.13M6296.75 945.207h-248.61v262.363h-179.93V504.188h179.93v277.359h248.61V504.188h179.91v703.382h-179.91V945.207M1074.57 826.527c-4.3-131.152-21.23-157.422-94.941-157.422v-164.91h27.481c183.88 0 228.1 94.961 234.88 306.078l7.49 233.637h172.41V504.195h179.91v703.375h-514.73l-12.5-381.043M2035.21 659.102h-116.19v178.664h116.19c62.47 0 99.95-27.493 99.95-86.203 0-63.719-36.23-92.461-99.95-92.461zm13.74 334.832h-129.93v213.636h-179.89V504.191h312.33c196.14 0 266.1 127.434 266.1 247.372 0 154.91-97.43 242.371-268.61 242.371M2903.52 657.852v397.288c99.94-13.74 162.4-88.695 162.4-198.636s-62.46-184.899-162.4-198.652zm-179.91 0c-99.95 13.753-162.41 88.711-162.41 198.652 0 109.941 62.46 184.896 162.41 198.636zm179.91 565.958v261.12h-179.91v-261.12c-206.13-17.49-344.82-163.67-344.82-367.306 0-204.891 138.69-351.07 344.82-368.551V223.074h179.91v264.879c206.13 16.238 344.82 163.66 344.82 368.551 0 204.886-138.69 351.066-344.82 367.306M3743.09 766.555c0-81.211-57.47-127.438-132.45-127.438-64.95 0-116.18 23.738-116.18 93.707 0 68.711 56.22 79.949 104.95 79.949h143.68zm179.89-46.231v236.121c0 172.415-109.94 281.115-294.84 281.115-191.14 0-292.35-114.94-301.1-234.89h182.41c6.25 26.24 33.74 71.22 118.69 71.22 69.97 0 114.95-32.48 114.95-117.445h-178.66c-159.93 0-254.88-83.699-254.88-223.621 0-146.179 103.86-246.129 253.63-246.129 109.8 0 170.76 51.899 197.38 91.211 23.74-47.468 76.22-73.711 144.92-73.711h62.47v162.41c-32.47 0-44.97 14.993-44.97 53.719M4685.09 681.594H4492.7v254.871h192.39c99.95 0 156.17-46.231 156.17-127.43 0-83.711-56.22-127.441-156.17-127.441zm8.75 426.046H4492.7v198.63h466v178.66h-654.66V504.191h389.8c216.13 0 339.82 107.442 339.82 304.844 0 186.137-123.69 298.605-339.82 298.605M5542.15 766.555c0-81.211-57.47-127.438-132.43-127.438-64.97 0-116.19 23.738-116.19 93.707 0 68.711 56.22 79.949 104.94 79.949h143.68zm179.9-46.231v236.121c0 172.415-109.94 281.115-294.84 281.115-191.16 0-292.35-114.94-301.09-234.89h182.4c6.24 26.24 33.73 71.22 118.69 71.22 69.96 0 114.94-32.48 114.94-117.445h-178.66c-159.92 0-254.87-83.699-254.87-223.621 0-146.179 103.86-246.129 253.62-246.129 109.81 0 170.77 51.899 197.39 91.211 23.73-47.468 76.21-73.711 144.93-73.711h62.47v162.41c-32.49 0-44.98 14.993-44.98 53.719M968.379 4.45h-962v199.898h962V4.449M349.949 875.246l134.93 401.044h4.992l127.438-401.044zm312.289 475.074c-27.429 81.8-59.039 146.41-167.367 146.41-108.32 0-141.973-64.35-170.844-146.41L26.367 504.195H223.77l68.71 201.141h379.797l63.715-201.141h209.899L662.238 1350.32" transform="matrix(.13333 0 0 -.13333 0 200)"/></svg>