<svg xmlns="http://www.w3.org/2000/svg" height="374.667" width="485.333" xml:space="preserve"><defs><linearGradient id="b" spreadMethod="pad" gradientTransform="matrix(10 0 0 10 -460 -5200)" gradientUnits="userSpaceOnUse" y2="646.184" x2="389.096" y1="646.184" x1="289.356"><stop offset="0" style="stop-opacity:1;stop-color:#007e38"/><stop offset="1" style="stop-opacity:1;stop-color:#64be29"/></linearGradient><linearGradient id="d" spreadMethod="pad" gradientTransform="matrix(10 0 0 10 -460 -5200)" gradientUnits="userSpaceOnUse" y2="661.725" x2="389.096" y1="661.725" x1="289.356"><stop offset="0" style="stop-opacity:1;stop-color:#007e38"/><stop offset="1" style="stop-opacity:1;stop-color:#64be29"/></linearGradient><linearGradient id="f" spreadMethod="pad" gradientTransform="matrix(10 0 0 10 -460 -5200)" gradientUnits="userSpaceOnUse" y2="678.646" x2="389.09" y1="678.646" x1="289.359"><stop offset="0" style="stop-opacity:1;stop-color:#007e38"/><stop offset="1" style="stop-opacity:1;stop-color:#64be29"/></linearGradient><linearGradient id="h" spreadMethod="pad" gradientTransform="matrix(10 0 0 10 -460 -5200)" gradientUnits="userSpaceOnUse" y2="661.725" x2="167.346" y1="661.725" x1="66.064"><stop offset="0" style="stop-opacity:1;stop-color:#3c186a"/><stop offset="1" style="stop-opacity:1;stop-color:#0078bf"/></linearGradient><linearGradient id="j" spreadMethod="pad" gradientTransform="matrix(10 0 0 10 -460 -5200)" gradientUnits="userSpaceOnUse" y2="661.725" x2="277.254" y1="661.725" x1="177.181"><stop offset="0" style="stop-opacity:1;stop-color:#74252e"/><stop offset="1" style="stop-opacity:1;stop-color:#e10048"/></linearGradient><clipPath id="a" clipPathUnits="userSpaceOnUse"><path style="clip-rule:evenodd" d="M2864.86 1355.41h-234.21v-212.72h233.5c7.36 0 21.21 1.15 27.82 2.65 44.8 9.7 82.18 49.47 82.18 103.63 0 54.23-37.38 94.14-82.18 103.79-6.4 1.46-19.6 2.58-27.11 2.65z"/></clipPath><clipPath id="c" clipPathUnits="userSpaceOnUse"><path style="clip-rule:evenodd" d="M3428.42 2614.36h-591.58c-222.73 0-403.3-180.52-403.3-403.26v-418.87h570.71c13.21 0 29.36-.95 39.52-1.44 129.15-6.51 224.33-72.83 224.33-187.97 0-90.55-65.06-167.82-183.51-185.28v-4.55c130.85-9.06 231.04-81.08 231.04-194.57 0-122.71-110-201.74-256.61-201.74h-625.48V194.57h591.58c222.74 0 403.3 180.571 403.3 403.258z"/></clipPath><clipPath id="e" clipPathUnits="userSpaceOnUse"><path style="clip-rule:evenodd" d="M2630.65 1475.46h212.39c7.68.09 18.3 1.18 22.26 1.85 43.87 7.41 81.18 43.12 81.18 96.29 0 53.32-37.31 89.04-81.18 96.44-4.1.75-15.26 1.8-23 1.8h-211.65z"/></clipPath><clipPath id="g" clipPathUnits="userSpaceOnUse"><path style="clip-rule:evenodd" d="M1196.76 2614.36H605.281c-222.738 0-403.316-180.52-403.316-403.26v-995.99c113.105-54.73 229.937-90.48 348.883-90.48 139.461 0 216.082 85.12 216.082 199.67v467.89h346.84V1324.3c0-183.01-112.34-329.823-497.844-329.823-232.031 0-413.961 50.023-413.961 50.023V194.57h591.48c222.785 0 403.315 180.571 403.315 403.258z"/></clipPath><clipPath id="i" clipPathUnits="userSpaceOnUse"><path style="clip-rule:evenodd" d="M2312.54 2614.36h-591.48c-222.73 0-403.31-180.52-403.31-403.26v-527.96c102.2 87.64 278.91 142.35 566.03 129.51 153.65-6.9 316.62-48.08 316.62-48.08v-170.75c-81.58 41.31-179.37 79.56-305.42 89.18-217.89 16.45-348.98-90.04-348.98-278.57 0-188.42 131.09-294.86 348.98-278.36 126.05 9.52 225.18 48.83 305.42 89.04V1044.5s-162.97-41.21-316.62-48.219c-287.12-12.902-463.83 41.869-566.03 129.489v-931.2h591.53c222.74 0 403.26 180.571 403.26 403.258z"/></clipPath></defs><path style="fill:#fff;fill-opacity:1;fill-rule:nonzero;stroke:none" d="M3630.04 570.961c0-311.82-252.79-564.668-564.61-564.668H.285V2238.01c0 311.78 252.809 564.57 564.668 564.57H3630.04V570.961" transform="matrix(.13333 0 0 -.13333 0 374.667)"/><g clip-path="url(#a)" transform="matrix(.13333 0 0 -.13333 0 374.667)"><path style="fill:url(#b);fill-opacity:1;fill-rule:nonzero;stroke:none" d="M2864.86 1355.41h-234.21v-212.72h233.5c7.36 0 21.21 1.15 27.82 2.65 44.8 9.7 82.18 49.47 82.18 103.63 0 54.23-37.38 94.14-82.18 103.79-6.4 1.46-19.6 2.58-27.11 2.65"/></g><g clip-path="url(#c)" transform="matrix(.13333 0 0 -.13333 0 374.667)"><path style="fill:url(#d);fill-opacity:1;fill-rule:nonzero;stroke:none" d="M3428.42 2614.36h-591.58c-222.73 0-403.3-180.52-403.3-403.26v-418.87h570.71c13.21 0 29.36-.95 39.52-1.44 129.15-6.51 224.33-72.83 224.33-187.97 0-90.55-65.06-167.82-183.51-185.28v-4.55c130.85-9.06 231.04-81.08 231.04-194.57 0-122.71-110-201.74-256.61-201.74h-625.48V194.57h591.58c222.74 0 403.3 180.571 403.3 403.258V2614.36"/></g><g clip-path="url(#e)" transform="matrix(.13333 0 0 -.13333 0 374.667)"><path style="fill:url(#f);fill-opacity:1;fill-rule:nonzero;stroke:none" d="M2630.65 1475.46h212.39c7.68.09 18.3 1.18 22.26 1.85 43.87 7.41 81.18 43.12 81.18 96.29 0 53.32-37.31 89.04-81.18 96.44-4.1.75-15.26 1.8-23 1.8h-211.65v-196.38"/></g><g clip-path="url(#g)" transform="matrix(.13333 0 0 -.13333 0 374.667)"><path style="fill:url(#h);fill-opacity:1;fill-rule:nonzero;stroke:none" d="M1196.76 2614.36H605.281c-222.738 0-403.316-180.52-403.316-403.26v-995.99c113.105-54.73 229.937-90.48 348.883-90.48 139.461 0 216.082 85.12 216.082 199.67v467.89h346.84V1324.3c0-183.01-112.34-329.823-497.844-329.823-232.031 0-413.961 50.023-413.961 50.023V194.57h591.48c222.785 0 403.315 180.571 403.315 403.258V2614.36"/></g><g clip-path="url(#i)" transform="matrix(.13333 0 0 -.13333 0 374.667)"><path style="fill:url(#j);fill-opacity:1;fill-rule:nonzero;stroke:none" d="M2312.54 2614.36h-591.48c-222.73 0-403.31-180.52-403.31-403.26v-527.96c102.2 87.64 278.91 142.35 566.03 129.51 153.65-6.9 316.62-48.08 316.62-48.08v-170.75c-81.58 41.31-179.37 79.56-305.42 89.18-217.89 16.45-348.98-90.04-348.98-278.57 0-188.42 131.09-294.86 348.98-278.36 126.05 9.52 225.18 48.83 305.42 89.04V1044.5s-162.97-41.21-316.62-48.219c-287.12-12.902-463.83 41.869-566.03 129.489v-931.2h591.53c222.74 0 403.26 180.571 403.26 403.258V2614.36"/></g></svg>