<svg xmlns="http://www.w3.org/2000/svg" height="282.667" width="793.333" xml:space="preserve"><path style="fill:#ed1c24;fill-opacity:1;fill-rule:evenodd;stroke:none" d="M5623.93 1286.49c0 65.01 50.39 117.61 111.97 117.61 61.85 0 111.71-52.6 111.71-117.61 0-65.1-49.86-117.7-111.71-117.7-61.58 0-111.97 52.6-111.97 117.7zm111.97-89.83c47.01 0 85.41 40.36 85.41 89.83 0 49.21-38.4 89.23-85.41 89.23-46.87 0-85.41-40.02-85.41-89.23 0-49.47 38.54-89.83 85.41-89.83zm-15.23 38.27h-22.92v103.64h41.54c8.46 0 17.96-.52 25.25-5.73 7.95-5.82 12.51-15.62 12.51-26.04 0-11.46-6.51-22.22-16.93-26.13l17.97-45.74h-25.52l-15.11 40.62h-16.79zm0 58.24h12.76c4.69 0 10.16-.17 14.06 2.17 3.91 2.52 5.6 7.55 5.6 11.98 0 3.91-2.21 8.59-5.6 10.42-3.38 2.34-10.29 1.82-14.32 1.82h-12.5v-26.39M4023.53 2068.63l-30.6-199.47c-66.53 35.42-115.48 49.3-167.7 49.3-139.44 0-238-141.73-238-344.07 0-139.74 66.14-223.93 174.99-223.93 46.22 0 96.99 14.84 159.1 47.39l-32.68-209.87c-68.75-19.8-113.53-26.83-165.48-26.83-201.94 0-327.58 152.33-327.58 396.84 0 328.88 173.55 558.55 421.84 558.55 32.03 0 60.68-3.13 83.98-9.9l77.21-20.22c22.91-9.12 28.12-10.5 44.92-17.79M3401.96 1931.92c-5.86 1.13-12.37 1.91-19.14 1.91-61.72 0-96.61-32.63-153.9-121.69l16.67 113.62h-169.65l-115.01-747.68h188.18c67.32 456.99 84.5 535.89 174.73 535.89 5.46 0 5.99 0 13.67-.78 16.67 90.1 39.45 156.33 70.83 216.73l-6.38 2M2280.78 1187.19c-50.91-16.92-91.14-24.65-134.37-24.65-95.57 0-147.78 58.24-147.78 164.48 0 20.84 1.57 43.32 5.34 67.01l11.59 72.92 8.59 59.54 81.24 510.2h186.19l-21.35-110.93h95.82l-26.3-181.76h-95.56l-49.48-312.04c-1.69-13.8-3.12-23.96-3.12-30.98 0-38.28 19.53-55.38 63.8-55.38 21.61 0 37.88 2.26 50.38 6.94l-24.99-165.35M1542.54 1689.32c0-94.35 43.49-159.62 141.92-208.41 75.39-37.49 87.37-48.43 87.37-82.45 0-46.44-33.47-67.96-107.16-67.96-55.59 0-107.54 9.29-167.43 29.94l-25.91-172.46 8.46-1.83 34.37-7.29c11.07-2.34 27.34-4.43 48.83-6.77 44.66-4.17 78.9-6.16 103.12-6.16 196.46 0 287.34 79.33 287.34 249.63 0 102.33-37.88 162.83-131.5 208.14-78.11 37.24-86.97 46-86.97 80.72 0 40.54 30.99 61.37 91.14 61.37 36.71 0 86.45-4.34 133.97-11.11l26.7 172.64c-48.83 8.33-121.35 14.75-164.32 14.75-208.44 0-280.7-114.74-279.93-252.75M5515.21 1178.08h-177.19l9.24 73.26c-51.56-57.9-104.55-83.16-173.03-83.16-136.97 0-226.68 123.43-226.68 310.39 0 248.68 139.44 458.64 305.06 458.64 72.78 0 127.85-31.5 179.67-102.33l40.75 262.65h184.62zm-276.41 176.03c87.5 0 148.69 103.89 148.69 251.88 0 95.05-34.89 146.78-99.6 146.78-84.89 0-145.18-104.33-145.18-251.46 0-97.9 32.43-147.2 96.09-147.2M2873.96 1193.79c-64.06-20.14-126.03-30.29-192.43-30.04-208.84 0-317.95 114.93-317.95 334.7 0 256.93 138.79 446.05 327.45 446.05 153.9 0 252.72-105.97 252.72-272.11 0-55.03-6.64-108.67-23.31-184.44h-372.37c-1.56-11.38-1.82-16.58-1.82-23.18 0-87.4 55.72-131.41 164.7-131.41 66.79 0 126.95 14.5 194.26 47.56zm-105.07 445.19c1.04 15.62 1.3 28.38 1.3 37.84 0 61.11-32.94 96.78-88.66 96.78-59.37 0-101.95-47.65-119.4-134.1l206.76-.52M790.645 1178.08H603.551l107.156 706.54-239.437-706.54H343.027l-15.5 702.37-112.879-702.37H39.398l146.215 919.45h269.641l7.422-568.96 182.019 568.96h290.993l-145.043-919.45M1272.78 1511.13c-19.8 2.34-28.52 3.2-41.93 3.2-106.11 0-159.89-38.62-159.89-114.13 0-46.53 26.43-76.22 67.32-76.22 76.17 0 131.37 76.22 134.5 187.15zm136.18-333.05h-155.07l3.39 77.6c-47.26-61.89-110.41-90.62-196.21-90.62-101.816 0-171.34 83.32-171.34 203.71 0 182.54 121.47 288.52 329.14 288.52 21.22 0 48.31-1.65 76.17-5.55 5.85 24.74 7.42 35.41 7.42 48.51 0 49.39-32.55 68.14-120.3 68.14-53 0-113.8-8.07-155.72-21.35l-26.04-7.55-16.408-4.86 25.778 167.69c93.48 29.08 155.07 40.28 224.46 40.28 160.93 0 246.21-75.95 246.21-219.26 0-37.23-2.73-64.83-15.49-148.33l-39.19-264.91-6.38-47.83-4.82-38.1-3.26-26.04-2.34-20.05M4346.16 1511.13c-19.53 2.34-28.51 3.2-41.66 3.2-106.5 0-160.41-38.62-160.41-114.13 0-46.53 26.7-76.22 67.57-76.22 76.56 0 131.11 76.22 134.5 187.15zm136.32-333.05h-155.33l3.65 77.6c-47.26-61.89-110.54-90.62-196.21-90.62-101.82 0-171.61 83.32-171.61 203.71 0 182.54 121.35 288.52 329.41 288.52 21.09 0 48.43-1.65 76.16-5.55 5.74 24.74 7.43 35.41 7.43 48.51 0 49.39-32.55 68.14-120.31 68.14-53.25 0-113.92-8.07-155.46-21.35l-26.69-7.55-16.14-4.86 26.04 167.69c93.61 29.08 155.06 40.28 223.94 40.28 161.19 0 246.47-75.95 246.47-219.26 0-37.23-3.26-64.83-15.37-148.33l-39.45-264.91-5.85-47.83-5.21-38.1-3.39-26.04-2.08-20.05M5005.62 1931.92c-5.6 1.13-11.72 1.91-18.88 1.91-61.45 0-96.61-32.63-154.16-121.69l16.67 113.62h-169.39l-114.57-747.68h187.61c67.31 456.99 85.02 535.89 174.6 535.89 5.86 0 5.47.52 13.15-.78 16.92 90.1 39.84 156.33 71.35 216.73l-6.38 2" transform="matrix(.13333 0 0 -.13333 0 282.667)"/><path style="fill:#f68712;fill-opacity:1;fill-rule:evenodd;stroke:none" d="M4219.73 452.918c0-169.512-52.46-269.332-135.14-269.332-60.41-1.824-97 65.445-97 166.133 0 119 53.52 253.886 139.32 253.886 69 0 92.82-73.085 92.82-150.687zm184.24-3.121c0 188.441-93.09 335.043-268.08 335.043-201.42 0-331.88-178.285-331.88-440.852 0-187.918 77.08-341.633 267.82-341.633 192.44 0 332.14 136.27 332.14 447.442M3864.16 917.117l-28.64-199.199c-62.23 35.152-107.55 49.734-156.5 49.734-130.85 0-222.25-142.347-222.25-344.675 0-139.657 61.19-224.196 163.14-224.196 43.49 0 91.01 14.836 148.82 47.387l-30.34-209.7c-64.71-19.964-107.02-26.823-155.07-26.823-188.53 0-305.96 152.414-305.96 396.925 0 329.055 162.09 558.723 394.24 558.723 30.08 0 56.64-3.82 78.64-9.895l71.61-20.312c22.13-8.766 26.69-10.328 42.31-17.969M2706.13 780.238c-5.34 1.473-11.45 2.082-17.97 2.082-56.76 0-90.09-32.808-143.34-121.605l15.49 113.445h-158.32l-106.9-747.762h174.86c62.89 457.426 79.56 536.153 163.41 536.153 4.94 0 5.46 0 12.75-.871 15.76 90.441 36.98 156.758 66.41 217.258l-6.39 1.3M4990.38 34.383h-165.22l8.47 73c-48.05-57.551-98.05-83.063-161.97-83.063-127.47 0-211.57 123.59-211.57 310.555 0 248.242 130.59 458.816 285 458.816 68.09 0 119.78-32.199 167.56-103.031l38.55 262.914h172.12zM4731.81 210.23c82.42 0 139.18 103.817 139.18 251.981 0 95.301-32.42 146.426-92.57 146.426-79.55 0-136.06-103.899-136.06-251.543 0-97.387 30.34-146.864 89.45-146.864M1066.28 37.512c-59.5-20.57-117.44-30.469-179.155-30.469-195.297 0-297.246 115.18-297.246 334.863 0 256.578 129.68 445.883 305.707 445.883 144.134 0 236.054-105.809 236.054-271.937 0-54.946-6.25-108.758-21.23-184.532H761.875c-1.043-11.199-1.434-16.754-1.434-23.265 0-87.141 52.211-131.153 153.637-131.153 62.492 0 118.992 14.582 181.622 47.395zM968.5 482.348c.777 15.8 1.305 28.382 1.305 38.015 0 60.934-30.731 96.606-82.68 96.606-55.855 0-95.562-48-111.578-133.844l192.953-.777M3146.51 37.512c-59.63-20.57-117.7-30.469-179.2-30.469-195.68 0-297.5 115.18-297.5 334.863 0 256.578 129.81 445.883 305.71 445.883 144.16 0 236.35-105.809 236.35-271.937 0-54.946-6.51-108.758-22.01-184.532h-347.8c-1.04-11.199-1.69-16.754-1.69-23.265 0-87.141 52.08-131.153 153.55-131.153 62.49 0 119.12 14.582 181.75 47.395zm-98.3 444.836c1.17 15.8 1.82 28.382 1.82 38.015 0 60.934-30.98 96.606-82.72 96.606-55.85 0-95.56-48-111.71-133.844l192.61-.777M5587.09 37.512c-60.42-20.57-117.7-30.469-179.68-30.469-195.3 0-297.5 115.18-297.5 334.863 0 256.578 130.07 445.883 305.97 445.883 144.12 0 235.91-105.809 235.91-271.937 0-54.946-5.99-108.758-21.48-184.532h-348.15c-1.17-11.199-1.43-16.754-1.43-23.265 0-87.141 52.21-131.153 153.63-131.153 62.63 0 119 14.582 181.76 47.395zm-98.3 444.836c.78 15.8 1.3 28.382 1.3 38.015 0 60.934-30.6 96.606-82.68 96.606-55.85 0-95.43-48-111.58-133.844l192.96-.777M548.605 746.387c-34.242 22.914-80.589 42.965-146.082 42.965-70.695 0-127.593-14.668-127.593-89.922 0-132.801 257.789-83.239 257.789-367.68 0-259.086-170.164-326.27-324.063-326.27-68.484 0-147.254 22.653-205.32 48.434l41.793 190.434c35.023-31.856 105.723-53.645 163.527-53.645 55.078 0 141.399 15.016 141.399 111.192 0 150.507-257.664 94.519-257.664 358.734 0 241.648 150.511 314.035 295.683 314.035 81.762 0 158.582-11.976 203.629-41.922l-43.098-186.355M1578.35 37.77c-36.06-17.36-84.24-28.817-155.33-28.817-152.85 0-247.64 152.762-247.64 338.77 0 243.472 137.11 437.636 338.91 437.636 44.01 0 111.19-19.011 164.19-49.734l-38.68-178.547c-37.5 24.652-76.55 40.277-116.78 40.277-93.49 0-160.28-85.671-160.28-239.218 0-88.36 48.44-160.922 124.99-160.922 45.57 0 77.6 9.633 116.79 32.551L1578.35 37.77M2232.47 224.992c-8.98-64.32-17.32-126.812-22.26-193.906h-168.35l14.19 120.82h-1.69c-52.73-82.11-107.29-138.008-202.59-138.008-105.72 0-163.01 111.192-163.01 256.403 0 50.078 3.12 78.379 14.32 156.578l47.65 346.07h187.36l-50.25-347.105c-5.08-37.328-12.25-74.301-12.25-112.844 0-43.742 19.92-88.008 70.44-85.32 76.82 0 122.13 93.918 135.02 203.539l51.69 341.73h181.37l-81.64-547.957M5761.63 40.156h-28.32v123.946h-40.95v26.636h110.24v-26.636h-40.97V40.156M5949.42 40.156h-26.41v125.832h-.39l-25.29-125.832h-27.75l-24.71 125.832h-.39V40.156h-26.41v150.582h41.32l24.54-118.719h.39l24.16 118.719h40.94V40.156" transform="matrix(.13333 0 0 -.13333 0 282.667)"/></svg>