<svg xmlns="http://www.w3.org/2000/svg" height="349.333" width="1334.667" xml:space="preserve"><path style="fill:#f0efeb;fill-opacity:1;fill-rule:nonzero;stroke:none" d="M6.379 2614.45H10006.4V4.45H6.379v2610" transform="matrix(.13333 0 0 -.13333 0 349.333)"/><path style="fill:#000;fill-opacity:1;fill-rule:nonzero;stroke:none" d="M8555.78 1574.15c44 15 91.1 6.4 134.9-5-13.4-34.3-25.3-69.1-34.5-104.7-39.5 10.9-83.7 21.5-122.2 1.8-41.7-19.7-59.6-68.4-59.1-112-.5-99.4.1-198.8-.2-298.2-37.4.2-74.6.3-111.9-.1-.2 171.3.1 342.7-.1 514 37.1 0 74.2 0 111.4.2 0-19.3-.2-38.5.1-57.8 23.2 24.9 47 53.2 81.6 61.8zm-655.8-106.2c-108.2-37.8-131.9-195.1-55.1-273.5 51.9-55.9 145.7-60.6 205.6-14.7 57.1 44.6 71.5 126.6 50.4 193.2-23.2 81.9-122.8 127.3-200.9 95zm-116.8 60.3c90.7 73.6 243.7 76.9 320.8-18.5-.5 20.1-.8 40.3-.8 60.4 38-.3 76.1-.1 114.3-.3.1-171.1-.1-342.3 0-513.4-38.1-.3-76.2-.1-114.2-.5-.1 19.6.2 39.1.5 58.7-82.4-96.6-243.5-90.3-332.6-6.6-119.5 106.7-114.5 320.9 12 420.2zm-517.1-2.4c103.8 78.1 261.2 75.9 363.8-3.6-19.2-29.6-36.6-60.3-54.9-90.5-41.5 25.6-87.9 48.4-137.9 46.1-73.1.1-141.5-59.2-148.8-132.4-2.4-40.7-4.8-85.1 18.9-120.7 27.9-52.9 90.6-81.1 148.9-75.8 43 3.8 83.1 22.4 119 45.6 17.8-30.3 35.3-60.8 54.5-90.3-32-22.7-66.4-43.4-104.6-53.1-84.2-12.6-178.1-11.3-249.2 41.7-139.3 97.1-143.2 329.3-9.7 433zm-261.9 48.7c42.9 13.9 88.9 6.5 131.5-5-9.7-35.3-21.8-69.8-33.9-104.2-42 11.1-90.8 21.5-129.5-4.3-37-21.4-48.5-67.4-50.1-107.2-.8-99.2 0-198.5-.3-297.8-37.1.2-74.1.2-111 0 .1 171.4-.2 342.8.1 514.1 36.5-.2 73.1-.3 109.7 0-.2-19.9-.3-39.9-.4-59.8 23.9 25.8 47.8 55.9 83.9 64.2zm-601-98.1c-51.4-15.9-83.1-67.2-91.4-118.2 89.4-1.5 178.7-.3 268.1-.7-8.5 36.4-19.4 75.5-50.9 99-34.4 29.8-83.8 28-125.8 19.9zm-112 53.6c67.6 54 163.2 64.3 244.4 38.9 68-23.3 120.2-82 142.7-149.5 19.6-47.7 16-100.3 14.8-150.7-127.3.3-254.6.2-381.9.1 8.7-51.2 42.7-99 93.5-115 72.2-27.1 150 2.5 210.9 42.7 18-26.8 38.5-52.6 52.1-82.1-59.5-53.9-142.2-74.4-221-69.2-77.6-2.3-154.5 36.1-200.1 98.7-82.6 115.2-67.4 295.1 44.6 386.1zm-1077.8-31.6c28.5 46.5 81.5 72.2 134.3 79 91.1 12.9 187.4-.7 267.9-46.6-15-30.9-31.1-61.2-48.5-90.9-65 33.4-139.9 52.2-212.5 35.9-26.1-7.2-50.2-31.9-44.3-60.8 7.5-34.6 48.7-34.3 76.2-41.2 72-12.4 154.5-15 208.4-71.4 54.9-57.9 41-157.6-20-205.6-57.7-48.7-136.5-55.2-208.8-51.2-69.7.1-138.9 23.7-194.9 64.9 17.6 28.6 34.7 57.5 53 85.7 71.3-49 167-70.8 249.8-40.1 30.4 9.1 50.1 47.8 28.4 74.7-54.9 41.2-128.8 24.7-190.4 48-52.3 14.1-103.4 49.9-117.3 104.7-6.3 38.8-4.4 81.5 18.7 114.9zm-454.4-26.3c-112.5-29.3-144.9-184.9-74.6-269.4 47.2-59.1 139.6-71 202.4-30.2 92.8 59.2 94.5 215.2 4.4 277.6-37.7 27.2-87.7 34.7-132.2 22zm-138 48.2c89.5 81.4 248.5 87.3 329.8-9.2-.3 19.7-.5 39.4-.5 59 37.6-.2 75.3-.3 113 .2 1.1-171.4.3-342.9.4-514.4-37.8.4-75.6.4-113.3 0 0 19.8 0 39.7.1 59.5-25.7-27.5-56.1-51.5-92.3-63-78.3-17.9-166.9-7.4-229.4 46.5-126.3 100.4-129.5 316.2-7.8 421.4zm-891.7-14.7c71 110.6 255.8 98.7 320.6-12.3 75.7 116.1 272.7 121.6 350.6 5.8 27.5-42.7 35.4-94.9 33.5-144.9-.4-99.4 0-198.8-.3-298.3-38.2.4-76.4.4-114.6 0-.5 102.7.4 205.3-.4 307.9 1.8 49.9-31.3 101.9-82.1 111.4-67.7 17.1-144.3-28.4-151.7-100-7-106.1-.9-212.9-3.1-319.3-37.3.4-74.7.3-112 .1-.2 96.2.1 192.5-.1 288.7.2 46.6-15.7 100.3-60.6 122.3-39.6 17.9-89 14.2-125.2-10.1-37.6-23-52.2-70.4-52.5-112.4-.2-96.2.1-192.4 0-288.6-37.5.4-74.9.4-112.3 0-.3 171.3.1 342.6-.2 513.9 37.1.2 74.2.1 111.3.3-.2-21.5-.4-43-.9-64.5zm2079.2 219.7c37.1-1.8 74.3-1.9 111.5-1.4 0-51.4 0-102.8.1-154.2 60.7.5 121.5 0 182.4.4-.1-34.2-.1-68.4-.1-102.6-60.8.6-121.5 0-182.3.5.2-80.9-.9-161.9.4-242.8.4-29.8 15.1-63 46-71.8 44.3-13.1 88.3 8.5 129 24.1 7.9-32.5 20-63.8 31.8-95.1-62.4-39.4-139.1-44.2-210.2-31.7-61.1 14.8-103.4 73-106 134.8-6.5 93.8-1.4 188.1-2.8 282.1-35.2.3-70.4.2-105.5-.1-.1 34.2-.1 68.4 0 102.6 35.1-.2 70.3-.3 105.5.1-.1 51.7-.4 103.4.2 155.1zm3131.7-256.1c-111.4-36.5-135.3-197.6-56.7-276.9 55-56 152.8-58.3 211.4-6.5 69 63.5 70.4 185.3 3.3 250.6-41.2 39.2-104.6 52.3-158 32.8zm200.7 307.2c37.7 0 75.4 0 113.2-.3-.3-240 .1-480.1-.2-720.2-37.7.4-75.4.4-113 0 0 20.1-.1 40.2.1 60.2-36.4-41.3-87.9-72.6-144.5-70.7-67.6-6.3-137.1 15-187 61.4-117.4 103.5-117 310.3 1.1 413.2 89.6 81.8 249.6 87.8 330.7-9.6-.8 88.7-.3 177.4-.4 266" transform="matrix(.13333 0 0 -.13333 0 349.333)"/><path style="fill:#231f20;fill-opacity:1;fill-rule:nonzero;stroke:none" d="M9390.68 1105.37c6.14 0 12.14-1.57 18-4.74 5.85-3.15 10.43-7.67 13.69-13.53 3.26-5.89 4.9-12.02 4.9-18.38 0-6.31-1.61-12.39-4.83-18.2-3.22-5.84-7.73-10.36-13.54-13.57-5.81-3.24-11.9-4.84-18.22-4.84-6.35 0-12.43 1.6-18.25 4.84-5.81 3.21-10.34 7.73-13.56 13.57-3.23 5.81-4.86 11.89-4.86 18.2 0 6.36 1.64 12.49 4.92 18.38 3.3 5.86 7.87 10.38 13.72 13.53 5.86 3.17 11.86 4.74 18.03 4.74zm0-6.07c-5.16 0-10.18-1.32-15.05-3.96-4.87-2.63-8.68-6.4-11.43-11.31-2.75-4.9-4.13-10.01-4.13-15.31 0-5.28 1.36-10.34 4.06-15.17 2.71-4.84 6.48-8.62 11.33-11.32 4.86-2.7 9.93-4.06 15.22-4.06 5.27 0 10.33 1.36 15.19 4.06 4.85 2.7 8.63 6.48 11.31 11.32 2.69 4.83 4.03 9.89 4.03 15.17 0 5.3-1.37 10.41-4.11 15.31-2.73 4.91-6.55 8.68-11.43 11.31-4.89 2.64-9.89 3.96-14.99 3.96zm11.74-36.48 5.97-1.78c-.98-4.05-3.03-7.29-6.18-9.7-3.17-2.41-7-3.63-11.48-3.63-5.71 0-10.33 1.84-13.89 5.54-3.56 3.7-5.33 8.8-5.33 15.34 0 4.27.81 7.98 2.43 11.13 1.61 3.17 3.93 5.54 6.91 7.14 3 1.61 6.43 2.41 10.27 2.41 4.31 0 7.89-1.03 10.74-3.1 2.85-2.07 4.79-4.89 5.83-8.43l-5.76-1.49c-.98 2.43-2.41 4.3-4.31 5.59-1.91 1.31-4.13 1.96-6.7 1.96-3.72 0-6.81-1.33-9.22-3.98-2.42-2.65-3.63-6.46-3.63-11.39 0-4.96 1.14-8.7 3.43-11.24 2.28-2.53 5.23-3.81 8.86-3.81 2.92 0 5.48.85 7.69 2.55 2.2 1.69 3.66 4 4.37 6.89" transform="matrix(.13333 0 0 -.13333 0 349.333)"/><path style="fill:#ea001b;fill-opacity:1;fill-rule:evenodd;stroke:none" d="M1377.28 2086.38c426.26 0 771.8-345.55 771.8-771.81 0-426.254-345.54-771.8-771.8-771.8-426.257 0-771.803 345.546-771.803 771.8 0 426.26 345.546 771.81 771.803 771.81" transform="matrix(.13333 0 0 -.13333 0 349.333)"/><path style="fill:#f79f1a;fill-opacity:1;fill-rule:evenodd;stroke:none" d="M2334.29 2086.38c426.26 0 771.8-345.54 771.8-771.8 0-426.256-345.54-771.803-771.8-771.803-426.26 0-771.81 345.547-771.81 771.803 0 426.26 345.55 771.8 771.81 771.8" transform="matrix(.13333 0 0 -.13333 0 349.333)"/><path style="fill:#ff5f01;fill-opacity:1;fill-rule:evenodd;stroke:none" d="M1855.78 1920.15c178.66-141.35 293.3-360.07 293.3-605.58 0-245.5-114.64-464.211-293.29-605.57-178.66 141.359-293.31 360.07-293.31 605.58 0 245.5 114.65 464.22 293.3 605.57" transform="matrix(.13333 0 0 -.13333 0 349.333)"/></svg>