<svg xmlns="http://www.w3.org/2000/svg" height="192" width="674.667" xml:space="preserve"><defs><linearGradient id="b" spreadMethod="pad" gradientTransform="matrix(10 0 0 10 -450 -3490)" gradientUnits="userSpaceOnUse" y2="463.155" x2="550.06" y1="463.155" x1="403.293"><stop offset="0" style="stop-opacity:1;stop-color:#48abfb"/><stop offset="1" style="stop-opacity:1;stop-color:#335ccc"/></linearGradient><clipPath id="a" clipPathUnits="userSpaceOnUse"><path style="clip-rule:evenodd" d="M3582.93 1429.5c344.03.44 688.05.73 1032.08.36 90.25-6.44 177.38-43.05 248.85-98 103.81-80.82 173.83-204.85 185.35-336.27 2.69-47.336 1.75-95.031-5.28-141.934-210.8-1.23-421.59-.07-632.39-.359-72.34.652-145.12-2.977-216.96 7.68-161.87 20.515-321.49 87.929-436.16 206.153-96.7 96.92-156.29 227.55-175.49 362.37z"/></clipPath></defs><path style="fill:#327351;fill-opacity:1;fill-rule:evenodd;stroke:none" d="M4.547 1430.3c154.543-.44 309.086-.22 463.703-.07 72.777.94 145.629-36.6 185.352-97.93 36.972-52.49 51.031-115.99 69.222-176.44 55.965-188.469 111.055-377.227 167.16-565.696.946-17.035 26.172-23.559 31.098-5.437 57.27 190.281 112.508 381.14 169.328 571.573 19.5 67.12 36.32 138.38 81.78 193.54 29.21 35.74 70.09 61.18 114.52 73.07 37.84 10.51 77.49 6.52 116.27 7.17 135.7-.51 271.48 1.16 407.17-.87-.94-473.417.51-946.835-.79-1420.187-146.79.946-293.65-1.304-440.44 1.16 0 277.704.65 555.411-.29 833.11-.95 24.715-41.83 22.613-44.58-.656-87.42-277.41-175.42-554.676-261.54-832.453-103.658-2.391-207.463-.504-311.194-.942-87.277 277.414-173.902 555.043-262.046 832.16-3.696 22.911-30.739 23.707-45.305 10.297.289-280.597-.363-561.203.289-841.808-146.57-1.809-293.141-.067-439.707-.868-.078 473.786-.078 947.497 0 1421.277zm2006.043-.87c146.49 2.25 293.14-1.16 439.64 1.81 2.32-281.03.29-562.142 1.01-843.177 12.54-11.235 35.59-14.715 43.28 3.914 97.56 204.488 194.7 409.193 292.19 613.753 30.88 63.5 55.96 132.37 106.34 183.69 22.54 21.31 50.6 41.97 83.22 40.52 149.4-.08 298.8.94 448.27-.51.22-473.203.22-946.403 0-1419.606-146.58-1.164-293.22-1.09-439.86-.074-.07 280.313.58 560.695-.29 841.004-.36 24.07-41.1 22.113-45.31.508-91.91-202.817-183.46-405.782-275.31-608.606-28.27-61.539-55.09-124.968-97.28-178.61-23.48-29.866-57.77-56.687-97.7-54.878-152.66.074-305.4-.215-458.06.148 0 473.348.22 946.766-.14 1420.114zm1628.3-648.551c460.44 3.113 921.03 0 1381.48 1.523-15.52-63.425-56.55-118.011-99.96-165.632-85.69-93-208.84-149.762-335.41-153.098-168.17-.871-336.41.144-504.66-.508-1.02-151.43 0-302.785-.43-454.21-146.72.651-293.51-.438-440.3.651-.72 257.047.73 514.165-.72 771.274" transform="matrix(.13333 0 0 -.13333 0 192)"/><g clip-path="url(#a)" transform="matrix(.13333 0 0 -.13333 0 192)"><path style="fill:url(#b);fill-opacity:1;fill-rule:nonzero;stroke:none" d="M3582.93 1429.5c344.03.44 688.05.73 1032.08.36 90.25-6.44 177.38-43.05 248.85-98 103.81-80.82 173.83-204.85 185.35-336.27 2.69-47.336 1.75-95.031-5.28-141.934-210.8-1.23-421.59-.07-632.39-.359-72.34.652-145.12-2.977-216.96 7.68-161.87 20.515-321.49 87.929-436.16 206.153-96.7 96.92-156.29 227.55-175.49 362.37"/></g></svg>