<svg xmlns="http://www.w3.org/2000/svg" height="450.667" width="1472" xml:space="preserve"><path style="fill:#e95516;fill-opacity:1;fill-rule:nonzero;stroke:none" d="M2246.9 3372.03 1124.32 2249.45H2246.9V4.332L3369.48 1124.23v2247.8H2246.9" transform="matrix(.13333 0 0 -.13333 0 450.667)"/><path style="fill:#2b2c83;fill-opacity:1;fill-rule:nonzero;stroke:none" d="m1124.34 4.34 1122.57 1122.57H1124.34v2245.13L1.758 2252.13V4.34H1124.34M4492.04 565.609h589.34V2305.61h898.03V565.609h589.35V2810.77H4492.04zM10216.8 1969.55h-503.51v336.06h1121.21v505.16H9123.94V565.609s840.67.036 1120.86.036c449.4.035 786.2 225.289 786.2 701.965 0 477.5-336.8 701.94-814.2 701.94zm-56.2-926.85h-447.31v448.57h447.31c139.1 0 279.8-54.81 279.8-223.66 0-168.91-140.7-224.91-279.8-224.91zm-2149.42 1.37c-393.32 0-614.48 288.39-614.48 644.86 0 286.23 161 645.45 603.32 645.45 276.12 0 454.23-168.77 517.36-247.38l358.37 358.37c-216.22 258.05-540.79 422.28-903.76 422.28-650.99 0-1164.67-481.85-1164.67-1178.72 0-650.99 513.68-1178.688 1164.67-1178.688 389.71 0 735.14 189.262 949.72 480.774l-360.67 360.664c-114.08-178.73-300.33-307.61-549.86-307.61" transform="matrix(.13333 0 0 -.13333 0 450.667)"/></svg>