<svg xmlns="http://www.w3.org/2000/svg" height="104" width="384" xml:space="preserve"><defs><linearGradient id="l" spreadMethod="pad" gradientTransform="matrix(10 0 0 10 -570 -4100)" gradientUnits="userSpaceOnUse" y2="475.532" x2="71.076" y1="448.318" x1="61.181"><stop offset="0" style="stop-opacity:1;stop-color:#a2cc38"/><stop offset=".07" style="stop-opacity:1;stop-color:#a2cc38"/><stop offset=".262" style="stop-opacity:1;stop-color:#81c45e"/><stop offset=".922" style="stop-opacity:1;stop-color:#0ea7df"/><stop offset="1" style="stop-opacity:1;stop-color:#0ea7df"/></linearGradient><linearGradient id="d" spreadMethod="pad" gradientTransform="matrix(10 0 0 10 -570 -4100)" gradientUnits="userSpaceOnUse" y2="484.603" x2="96.641" y1="474.708" x1="71.076"><stop offset="0" style="stop-opacity:1;stop-color:#0ea7df"/><stop offset=".059" style="stop-opacity:1;stop-color:#0ea7df"/><stop offset=".541" style="stop-opacity:1;stop-color:#0099f9"/><stop offset=".922" style="stop-opacity:1;stop-color:#0190eb"/><stop offset="1" style="stop-opacity:1;stop-color:#0190eb"/></linearGradient><linearGradient id="f" spreadMethod="pad" gradientTransform="matrix(10 0 0 10 -570 -4100)" gradientUnits="userSpaceOnUse" y2="422.754" x2="122.205" y1="416.157" x1="94.167"><stop offset="0" style="stop-opacity:1;stop-color:#a2cc38"/><stop offset=".121" style="stop-opacity:1;stop-color:#a2cc38"/><stop offset=".293" style="stop-opacity:1;stop-color:#86c238"/><stop offset=".871" style="stop-opacity:1;stop-color:#20a037"/><stop offset="1" style="stop-opacity:1;stop-color:#20a037"/></linearGradient><linearGradient id="b" spreadMethod="pad" gradientTransform="matrix(10 0 0 10 -570 -4100)" gradientUnits="userSpaceOnUse" y2="450.792" x2="61.181" y1="422.754" x1="71.076"><stop offset="0" style="stop-opacity:1;stop-color:#f1e812"/><stop offset=".149" style="stop-opacity:1;stop-color:#f1e812"/><stop offset=".298" style="stop-opacity:1;stop-color:#e7e417"/><stop offset=".58" style="stop-opacity:1;stop-color:#cada25"/><stop offset=".89" style="stop-opacity:1;stop-color:#a2cc38"/><stop offset="1" style="stop-opacity:1;stop-color:#a2cc38"/></linearGradient><linearGradient id="h" spreadMethod="pad" gradientTransform="matrix(10 0 0 10 -570 -4100)" gradientUnits="userSpaceOnUse" y2="477.181" x2="118.907" y1="484.603" x1="94.167"><stop offset="0" style="stop-opacity:1;stop-color:#0190eb"/><stop offset=".051" style="stop-opacity:1;stop-color:#0190eb"/><stop offset=".789" style="stop-opacity:1;stop-color:#0c8acb"/><stop offset="1" style="stop-opacity:1;stop-color:#0c8acb"/></linearGradient><linearGradient id="j" spreadMethod="pad" gradientTransform="matrix(10 0 0 10 -570 -4100)" gradientUnits="userSpaceOnUse" y2="414.507" x2="96.641" y1="424.403" x1="69.427"><stop offset="0" style="stop-opacity:1;stop-color:#f1e812"/><stop offset=".129" style="stop-opacity:1;stop-color:#f1e812"/><stop offset=".301" style="stop-opacity:1;stop-color:#ebe716"/><stop offset=".531" style="stop-opacity:1;stop-color:#d9df1f"/><stop offset=".801" style="stop-opacity:1;stop-color:#bad52d"/><stop offset=".98" style="stop-opacity:1;stop-color:#a2cc38"/><stop offset="1" style="stop-opacity:1;stop-color:#a2cc38"/></linearGradient><clipPath id="a" clipPathUnits="userSpaceOnUse"><path style="clip-rule:evenodd" d="M98.848 386.191c0 4.95.12 9.875.367 14.77l-89.906 4.437c-.305-6.375-.489-12.773-.489-19.207 0-106.187 43.606-202.351 114.137-271.964l63.742 62.91c-54.226 53.574-87.851 127.508-87.851 209.054z"/></clipPath><clipPath id="e" clipPathUnits="userSpaceOnUse"><path style="clip-rule:evenodd" d="M398.508 90.438c-5.024 0-10.008.117-14.969.363l-4.496-88.735c6.457-.3 12.941-.48 19.465-.48 107.582 0 205.019 43.035 275.551 112.648l-63.743 62.911c-54.285-53.52-129.191-86.708-211.808-86.708z"/></clipPath><clipPath id="i" clipPathUnits="userSpaceOnUse"><path style="clip-rule:evenodd" d="M398.535 90.422c-87.972 0-167.23 37.629-222.097 97.426l-66.856-59.707C180.879 50.402 283.941 1.566 398.535 1.566z"/></clipPath><clipPath id="c" clipPathUnits="userSpaceOnUse"><path style="clip-rule:evenodd" d="M398.492 681.953c5.02 0 10.004-.18 14.961-.426l4.5 88.762c-6.453.305-12.941.484-19.461.484-107.59 0-205.023-43.035-275.558-112.648l63.742-62.91c54.285 53.578 129.195 86.738 211.816 86.738z"/></clipPath><clipPath id="k" clipPathUnits="userSpaceOnUse"><path style="clip-rule:evenodd" d="m197.563 605.391-60.497 65.992C58.301 601.012 8.82 499.293 8.82 386.188h90.028c.027 86.859 38.125 165.05 98.715 219.203z"/></clipPath><clipPath id="g" clipPathUnits="userSpaceOnUse"><path style="clip-rule:evenodd" d="m567.477 630.336 75.793 55.117c-66.891 53.371-152.02 85.32-244.743 85.32v-88.851c62.645.031 120.813-19.055 168.95-51.586z"/></clipPath></defs><path style="fill:#26ae3e;fill-opacity:1;fill-rule:evenodd;stroke:none" d="M1280.17 237.301c30.44-.168 60.43 7.226 87.19 21.508l22.38 11.925 65.35-47.371c-43.12-45.422-106.67-70.383-179.46-70.383-69.6 0-133.21 24.305-178.71 68.071-45.5 43.765-70.57 104.594-70.57 170.679 0 66.09 25.43 126.016 70.85 168.219 45.4 42.203 108.98 65.453 179.06 65.453 64.62 0 121.12-19.316 163.41-55.875l4.8-3.992-72.44-52.508c-26.77 18.828-58.96 28.735-91.86 28.266-91.03 0-157.11-63.922-157.11-151.992 0-88.078 66.08-152 157.11-152M1764.55 440.043h-122.88v102.793h196.14l105.73 76.629h-402.86V159.117h210.71c118.27 0 186.09 52.719 186.09 144.606.13 87.898-61.34 136.32-172.93 136.32zm-17.59-204.266h-105.29v127.61h105.29c64.13 0 93.94-21.36 93.94-63.809 0-43.375-31.73-63.801-93.94-63.801M2385.47 619.465l-105.72-76.629h-147.13V430.281h215.68v-76.66h-215.68V235.777h252.85v-76.66h-353.83v460.348h353.83M2479.49 619.465h192.67c122.91 0 199.22-63.11 199.22-164.735 0-101.621-76.38-165.21-199.29-165.21h-91.61V159.117h-100.99zm100.99-253.289h89.5c64.7 0 100.3 31.363 100.3 88.316s-35.6 88.344-100.3 88.344h-89.5v-176.66" transform="matrix(.13333 0 0 -.13333 0 104)"/><path style="fill:#21a038;fill-opacity:1;fill-rule:evenodd;stroke:none" d="M706.883 621.34c18.39-23.469 34.121-49.106 46.699-76.442L398.527 286.621 250.18 378.398v110.418l148.347-91.781L706.883 621.34" transform="matrix(.13333 0 0 -.13333 0 104)"/><g clip-path="url(#a)" transform="matrix(.13333 0 0 -.13333 0 104)"><path style="fill:url(#b);fill-opacity:1;fill-rule:nonzero;stroke:none" d="M98.848 386.191c0 4.95.12 9.875.367 14.77l-89.906 4.437c-.305-6.375-.489-12.773-.489-19.207 0-106.187 43.606-202.351 114.137-271.964l63.742 62.91c-54.226 53.574-87.851 127.508-87.851 209.054"/></g><g clip-path="url(#c)" transform="matrix(.13333 0 0 -.13333 0 104)"><path style="fill:url(#d);fill-opacity:1;fill-rule:nonzero;stroke:none" d="M398.492 681.953c5.02 0 10.004-.18 14.961-.426l4.5 88.762c-6.453.305-12.941.484-19.461.484-107.59 0-205.023-43.035-275.558-112.648l63.742-62.91c54.285 53.578 129.195 86.738 211.816 86.738"/></g><g clip-path="url(#e)" transform="matrix(.13333 0 0 -.13333 0 104)"><path style="fill:url(#f);fill-opacity:1;fill-rule:nonzero;stroke:none" d="M398.508 90.438c-5.024 0-10.008.117-14.969.363l-4.496-88.735c6.457-.3 12.941-.48 19.465-.48 107.582 0 205.019 43.035 275.551 112.648l-63.743 62.911c-54.285-53.52-129.191-86.708-211.808-86.708"/></g><g clip-path="url(#g)" transform="matrix(.13333 0 0 -.13333 0 104)"><path style="fill:url(#h);fill-opacity:1;fill-rule:nonzero;stroke:none" d="m567.477 630.336 75.793 55.117c-66.891 53.371-152.02 85.32-244.743 85.32v-88.851c62.645.031 120.813-19.055 168.95-51.586"/></g><path style="fill:#21a038;fill-opacity:1;fill-rule:evenodd;stroke:none" d="M788.18 386.191c0 23.528-2.145 46.543-6.242 68.922l-83.879-61.008c.062-2.628.125-5.257.125-7.882 0-86.828-38.133-165.051-98.719-219.203l60.496-65.989c78.738 70.336 128.219 172.055 128.219 285.16" transform="matrix(.13333 0 0 -.13333 0 104)"/><g clip-path="url(#i)" transform="matrix(.13333 0 0 -.13333 0 104)"><path style="fill:url(#j);fill-opacity:1;fill-rule:nonzero;stroke:none" d="M398.535 90.422c-87.972 0-167.23 37.629-222.097 97.426l-66.856-59.707C180.879 50.402 283.941 1.566 398.535 1.566v88.856"/></g><g clip-path="url(#k)" transform="matrix(.13333 0 0 -.13333 0 104)"><path style="fill:url(#l);fill-opacity:1;fill-rule:nonzero;stroke:none" d="m197.563 605.391-60.497 65.992C58.301 601.012 8.82 499.293 8.82 386.188h90.028c.027 86.859 38.125 165.05 98.715 219.203"/></g></svg>