<svg id="Слой_1" data-name="Слой 1" xmlns="http://www.w3.org/2000/svg" viewBox="0 0 42 14.91"><defs><style>.cls-1{fill:#219f38;fill-rule:evenodd;}</style></defs><path class="cls-1" d="M238.33,1173.8a9.08,9.08,0,0,1,2.33-.15c.25,1.29-1.33,2-2.36,1.54a.77.77,0,0,1,0-1.39Zm-8.29-5.27a10.44,10.44,0,0,1,3.21.24,1.65,1.65,0,0,1,.73,2.13,1.69,1.69,0,0,1-1.4,1.07,21.49,21.49,0,0,1-2.54.07q0-1.76,0-3.51Zm13,1.18c1,2.35,1.94,4.69,2.91,7-.2.45-.34,1-.86,1.21a1.38,1.38,0,0,1-1.13-.28c0,.51,0,1,0,1.52a2.37,2.37,0,0,0,1.93.15,3.13,3.13,0,0,0,1.28-1.76c.94-2.62,1.86-5.25,2.81-7.86h-1.7c-.55,1.57-1,3.18-1.58,4.72-.64-1.56-1.24-3.15-1.88-4.72Zm-6.28.49c0,.68,0,1.36,0,2a2.93,2.93,0,0,1,3.25-1.1c.61.2.62.93.65,1.47a16.6,16.6,0,0,0-2.82.12,1.78,1.78,0,0,0-1.53,1.36,2.22,2.22,0,0,0,.88,2.41,2.64,2.64,0,0,0,3.55-1q0,.61,0,1.23h1.52c0-1.68,0-3.36,0-5a2.07,2.07,0,0,0-1.67-1.92,5.26,5.26,0,0,0-3.78.48Zm-15.58-2.56q-2.91,2.19-5.84,4.35c-.92-.6-1.86-1.18-2.79-1.77,0,.72,0,1.44,0,2.16.94.56,1.85,1.16,2.77,1.75,2.26-1.66,4.5-3.34,6.74-5a12.23,12.23,0,0,0-.89-1.47Zm7.11-.72q0,4.88,0,9.76H230c0-1,0-2,0-3,1.52,0,3.17.13,4.51-.73a3.49,3.49,0,0,0,1.06-4.13,3.11,3.11,0,0,0-2.61-1.74,38.72,38.72,0,0,0-4.7-.13ZM208,1172a7.48,7.48,0,0,1,7.28-7.27,7.79,7.79,0,0,1,4.72,1.64l-1.44,1.08A5.66,5.66,0,0,0,213,1167a5.74,5.74,0,0,0,.48,10.58,5.61,5.61,0,0,0,4.73-.44,5.86,5.86,0,0,0,2.82-5.09c.52-.41,1.06-.79,1.58-1.2a7.53,7.53,0,0,1-.63,4.56,7.42,7.42,0,0,1-5.83,4.2,7,7,0,0,1-4.2-.84A7.49,7.49,0,0,1,208,1172Z" transform="translate(-208 -1164.74)"/></svg>