<svg xmlns="http://www.w3.org/2000/svg" height="378.667" width="674.667" xml:space="preserve"><path style="fill:#62b22f;fill-opacity:1;fill-rule:nonzero;stroke:none" d="m973.18 1277.6 347.12-228.22-.02-423.431-348.702-624.5L973.18 1277.6" transform="matrix(.13333 0 0 -.13333 0 378.667)"/><path style="fill:#974995;fill-opacity:1;fill-rule:nonzero;stroke:none" d="m685.328 1457.9 346.352-200.7L3.48 632.75l335.598 610.8 346.25 214.35" transform="matrix(.13333 0 0 -.13333 0 378.667)"/><path style="fill:#ee7024;fill-opacity:1;fill-rule:nonzero;stroke:none" d="m2300.38 2034.95-661.7 3.3-318.7 191.6-346.402 606.2 1326.802-801.1" transform="matrix(.13333 0 0 -.13333 0 378.667)"/><path style="fill:#fbb61b;fill-opacity:1;fill-rule:nonzero;stroke:none" d="m973.578 2836.05 346.402-606.2.7-835.31-349.2 106.71 2.098 1334.8" transform="matrix(.13333 0 0 -.13333 0 378.667)"/><path style="fill:#5a58a3;fill-opacity:1;fill-rule:nonzero;stroke:none" d="m.68 2226.15 339.5-617.2-1.102-365.4L3.48 632.75l-2.8 1593.4" transform="matrix(.13333 0 0 -.13333 0 378.667)"/><path style="fill:#2188cb;fill-opacity:1;fill-rule:nonzero;stroke:none" d="m.68 2226.15 2294.5-1403.9-657.5-4.602-1297.5 791.302-339.5 617.2" transform="matrix(.13333 0 0 -.13333 0 378.667)"/><path style="fill:#da0954;fill-opacity:1;fill-rule:nonzero;stroke:none" d="m1638.68 2038.25 661.7-3.3-979.4-602.1-1 411.2 318.7 194.2" transform="matrix(.13333 0 0 -.13333 0 378.667)"/><path style="fill:#1b1537;fill-opacity:1;fill-rule:nonzero;stroke:none" d="M3546.88 1938.75c80.5 73.4 190.7 110.4 299.1 107 113.3 2.3 227.4-5.4 340.1 8-24.4-74.8-73.9-139.6-106.9-211.2-81.2-1.5-162.5 1.5-243.6-1.3-104.3-8.5-203.7-93-213.9-199.3 94.9 94.6 243.4 101 366.4 69.9 82.4-28 155.8-89.8 185.7-173 27.6-73.1 32.1-153.4 14.1-229.3-27.3-104.1-111-184.7-209.7-222.8-116.4-43.8-250.3-46.1-366.2.3-110 44.8-187.8 148.8-214.4 262.9-29.12 101.53-25.24 251.84 4.62 355.04 25.76 89.04 76.48 171.18 144.68 233.76zm281.6-396.4c-61.88 12.25-131.58-12.96-163.69-67.38-58.28-98.76 21.82-246.28 152.49-227.72 142.64 20.24 179.68 250.15 11.2 295.1zm-921.4 255.5c128.2 31.5 274.8 22.3 384.3-57.6-36.2-58.4-68.9-118.8-102.1-178.9-53.5 17.8-105.5 46.1-163.4 44.7-61.4 1.9-127.9-22.1-162.8-74.9-37.2-55.9-39-132.7-2.8-189.7 32.2-53.8 95.5-78.7 155.6-84.3 46.9 5.3 94.6 11.9 138 31.8 10.4 6.5 22.4 6.2 34.2 5.4 21.2-60.6 67.6-110.7 85.9-172-118.1-63.1-258.9-76-388.2-44.6-89.1 26.2-174 77.2-225 156.6-80.7 123.8-77.6 298.9 15.1 415.5 55.9 75.4 141.4 124.5 231.2 148zm1405.3-3.2c249.1 1.8 498.3 1.9 747.3 0-2.2-236.6-.8-473.4-.6-710-83.8-.4-167.7-.6-251.5.1 3.9 155.3-3.9 310.4 1 465.2.4 12.1-2.4 23.3-8.3 33.7-76.5-1.7-153.2-1.8-229.7.1-4.8-166-.9-332.4-1.9-498.6-85.3-1.5-170.6-.7-255.8-.4.1 236.7 1.1 473.3-.5 709.9" transform="matrix(.13333 0 0 -.13333 0 378.667)"/><path style="fill:#037f37;fill-opacity:1;fill-rule:nonzero;stroke:none" d="m1320.28 625.949 317.4 191.699 657.5 4.602L971.578 1.45l348.702 624.499" transform="matrix(.13333 0 0 -.13333 0 378.667)"/></svg>