<svg xmlns="http://www.w3.org/2000/svg" height="841.333" width="1344" xml:space="preserve"><path style="fill:#fff;fill-opacity:1;fill-rule:nonzero;stroke:none" d="M5903.18 1857.05c24.1 32.6 24 76.7 36 114.5 72-.2 144 .2 216-.3-8.5-53.1-11.2-107.5-26.9-159.2-17-60.3-77.3-99.9-137.2-107.7-66.4-6.6-133.2-4.8-199.6-9.7 3.4-50 3.7-100.2 8-150.2.2-26 28.5-43.2 52.5-40.5 60.5 1.7 120.9 7.3 181.5 10.4-14.8-68.8-32.5-137-47.3-205.8-75-2.3-150-.7-225-1-53.8 1.5-108.3 1.1-160.7 14.2-35.5 7.7-62.6 41.4-61 78-8.9 186.5-17 373.1-23.2 559.6 90.7.2 181.4.1 272.1.1 2.7-36.6 3.4-73.3 3.1-110 36.9 1.8 76.4-6.3 111.7 7.6zm-1643 302.4c14.9 64.3 29.9 128.7 46.2 192.6 267.2-.7 534.5-.2 801.8-.2-15.5-64.1-30.9-128.1-45.8-192.3-107.3-.2-214.5 0-321.7-.1-13.4-54.3-25.9-108.9-39.1-163.3 108.9.3 217.8 0 326.7.2-15.9-66.4-32.4-132.6-47.5-199.2-108.9 0-217.7.1-326.5 0-21.1-85.7-42.7-171.2-61.5-257.4-9.1-23.1 20.9-27.1 36.1-32 78.7-16.3 157.6 9.4 236.1 15.8-17.4-72.8-35.7-145.4-52.3-218.4-130.5.2-260.9-.5-391.3.2-41.8 3.8-91 8.1-119.1 43.5-20.6 25-43.4 55.9-33.2 90.2 26.8 119 57.8 237 84.2 356.1-60.4-.1-120.8.2-181.2-.4 15.9 67.2 32.4 134.3 48 201.6 60.9-.1 121.8-.1 182.8 0 12.5 54.4 25.7 108.5 38.5 162.8-60.4.5-120.8.3-181.2.3zm3334 641.6c106.2.9 212.4.2 318.6.4 5.7-43.7-2.7-89.6 8.6-132.2 26.4-23.4 68-12.3 100.9-15-14.6-66.1-30.9-131.8-48.2-197.1-74.4.9-148.7-.2-223.1.3-49.2.8-103.9 15.9-132.9 58.6-16.5 21-16.7 48.7-17.7 74-2.1 70.3-3 140.7-6.2 211zm-874.8-996.5c-16.5-75.2-35.4-149.9-52.2-225.1 77.9-.2 155.9.1 233.9-.1 18 75 36.4 150 52 225.5-78-.3-155.9.1-233.7-.3zm94.3 400.5c-21.4-87.9-42.4-175.9-61.6-264.3 77.2 44.1 162.7 71.2 251.4 78.3 14.9 61.8 29.6 123.7 44.3 185.5-78.1.6-156.1-.2-234.1.5zm90.5 389.7c-18.8-85.4-40.2-170.3-59.1-255.7 78.6 37.4 162 65.9 249.9 68.7 15 62.2 29 124.7 43.5 187-78.1 0-156.2-.1-234.3 0zm-252.5 209.4c99.9.1 199.9.1 299.8 0-7.6-34.1-15.1-68.3-23.1-102.4 57.4 39.1 120 76.7 191.2 81.1 153.3 13.2 307.3 17.5 461.2 18.9-17.2-69-33-138.4-50.7-207.3-34 .4-67.9.4-101.8 0-78.8-337.6-158.1-675-236.6-1012.6 27.1-.3 54.2-.3 81.3-.5-6.3-28.2-13-56.3-19.2-84.6 62.8-1.6 139.6-8.7 182.4 48 71.8 109 140.7 220 211.5 329.6-100.6.8-201.1 0-301.7.5 12.6 58.2 27.3 116 39.8 174.1 115.1 1 230.1.4 345.2.4 14 52.3 25 105.4 39 157.7-113.6 1-227.1-.1-340.6.6 13.9 65.7 30.5 130.9 45.2 196.4 317.3.3 634.5.1 951.8.1-15.8-65.6-30.7-131.3-46.8-196.8-106.2.2-212.3 0-318.5.1-13-52.6-25.4-105.4-38-158.1 106.3.2 212.7 0 319.2.1-14.2-58.1-27.9-116.4-41.2-174.8-114.7.1-229.4 0-344.1.1-19-24-37.8-48.3-56.1-72.9 46.2-.6 92.5.1 138.7-1.1 16.5-77 35-153.6 51.5-230.7 4.6-12.7 3.8-32.7 20.4-36.4 35-9.2 71.8-6.8 107.8-7-17.1-72.2-33.9-144.6-50.6-216.9-67.4 0-135.4-2.8-202 7.7-47.8 18.4-105.6 40.8-121.6 94.8-19.6 73.4-31.8 148.6-50.7 222.3-52.9-73.8-98.9-152.3-151.4-226.4-43.7-61.4-116-101.2-191.6-103-80.8-1.2-161.5-.2-242.3-.2 4.1 21.6 8.6 43.1 13.1 64.5-26.8.1-53.5.1-80.2.1-5.6-21.7-11-43.4-16.6-65.1-97.5.7-194.9-.1-292.3.4 4.8 21.6 9.6 43.2 14.5 64.7-197.1-.1-394.2-.1-591.3 0 15 65.9 31.6 131.5 46.8 197.4 19.9-.2 39.9-.3 60-.5 96.2 412.5 194 824.8 288.6 1237.7zm-1196.2-522.4c-7.1-30.9-14.9-61.7-19.7-93.1 150.8 6.8 302 .5 453 3.1 7.9 30.2 15.9 60.4 24.1 90.5-144.2.3-288.5-.4-432.7.3l-24.7-.8zm76.7 308.1c-23.7-72.3-36-147.7-55.9-221.1 10.3 8.9 21.4 17.2 32 25.8 39.5 25.4 81.2 47.5 126 61.8 105.7 37.7 219.4 18.4 329.1 23.1 8.5 35.9 17.2 71.8 25.8 107.6-152.3 2.4-304.9-3-457 2.8zm-245.6 214.2c94-.4 188-.3 282-.1-10.6-46-20.9-92.2-31.5-138.2 13.9 10.6 27.8 21.2 41.9 31.6 42.6 31.6 88.9 60.1 141.1 72.5 75.5 18.5 152.6 35.4 230.9 31.9 127-2.5 254 2.7 381 2.3-41.9-174.1-82.7-348.5-124.2-522.8-16.6-63.6-35.5-128.8-74.6-182.7-51.3-67.5-140.7-92.4-222.4-90.8-171.3.3-342.8-2.3-514.1 1.4-36.5-132.2-64.1-266.7-98-399.6-6-29.9-21.2-63.4-.4-91.3 75.3-14.7 151.9 8.2 227.6 11.5-18-75-34.6-150.2-52.9-225.1-73.7.2-147.5 0-221.2.2-63.8.1-127.7-.5-191.2 6-43.3 2.4-80.8 33.3-101.7 69.6-5 43 9.9 85.5 17.8 127.4 103.4 432.1 206 864.3 309.9 1296.2zm-833.6-186.9c35.1 60.1 62.4 124.6 93.7 186.8 110-.3 220-.2 330.1 0-17-36.7-34-73.3-51.2-109.9 109.6-.4 219.1 0 328.7-.3-16.4-66.2-31.4-132.8-48.1-198.9-149.8.3-299.5.6-449.3-.2-22.9-21.7-43.6-47.9-73.9-59.4-46.1-19.2-91.5-43.3-142.2-46.7-58-3.4-116.2-.4-174.3-1.3 15.6 64.9 31.1 129.7 46.7 194.6 46.8 2.7 111.4-14.2 139.8 35.3zm-824.9 1224.3c122.6 16.6 244.6 37.1 366.4 59.1-4.2-40.7-15.6-80.1-25.1-119.8-37.6-156.6-74.3-313.4-108-470.8-9.6-41-8.2-85-27.1-123.4-74.4 1.1-148.7.6-223 .5-44.2 0-88.5-7-132.4-.6 18.5 84.9 57.7 163.6 74.4 248.9 33.1 133.8 54.2 270 74.8 406.1zm4087.8 11.9c-69.4-22.6-95.9-98.9-116.2-161.9-22.9-82.3-48.3-166.2-46.3-252.4-.3-36.1 19.8-76.5 58.9-81.9 45.5-3.6 92 15.8 124.9 46.9 44.7 49.7 52.6 118.8 70.1 180.6 18.1 73.7 43.2 155.9 7.6 228.4-15.7 37.4-62 52.9-99 40.3zm-282.9 93.9c79.1 64.2 175.5 113 278.6 118.8 68.7 4.2 130.6-40.6 166.7-96.2 4.1 18.1 5.4 44.6 30.7 42.9 115.2 15.7 229.8 34.9 344.2 55.4-2-16.6-3.5-33.4-7.1-49.8-66.4-271.4-132.2-543.4-176.5-819.5 1.1-15.8-12.5-26.1-27.6-23.9-110.9-.4-221.9 1.2-332.6-6.4-4.7 21.2 3.3 42.1 6.9 62.7-42.8-33.1-90.2-64.2-144.9-71.7-77.6-9.1-157.3 7.4-226.3 43.5-56.1 29.4-99.1 82.9-114.3 144.5-25.8 100.1-5.1 204.5 21.4 302.1 30.4 113.3 87.2 223.9 180.8 297.6zm977.9 80.5c105.6 13.5 210 34.7 314.1 56.8 17.5-28.2 12.1-62.6 15.2-94.1 4.5-114.5 13.8-228.9 16.2-343.4l-6.4-14.8c16.1 2.7 18.9 21.5 26 33.5 21.8 49.5 48 96.8 74.6 144 35.9 64.2 65.1 131.8 95.4 198.8 6.7 23.7 34.8 19.6 54 24 95.3 11.1 189.2 31.2 283.3 49.2 13.7 4.4 23-16.9 11.8-26-274.1-482.2-548.6-964.2-823.4-1446-40.7-88.9-130.6-154-230.1-151.9-69.8-.7-139.5-4.6-209.3-3.2 15.1 66.4 29.6 132.9 44.4 199.3 33.9.8 68.9-3.3 101.8 7.1 36.1 32.2 54.1 79.4 82.2 118.1 81.9 121.9 146.6 253.9 222.5 379.3 10 13.7 8 31 6.9 46.8-17.1 173.3-38.6 346.1-61.9 518.6-11.2 88.7-19.7 177.8-36.8 265.6-5.1 15.9-2.2 40 19.5 38.3zm-3854.6-155.1c-51-13.3-79.7-62.5-98.7-107.8-29.7-75.4-47.6-155-61.7-234.5-4.4-43.8-13.8-94.2 13.4-132.7 23.4-33.3 72.9-33.2 103.8-11 54.7 37.3 77 103.3 95.8 163.6 19.9 68.3 37 138 42.2 209.2 1.4 33.8.8 71.6-21.8 99.1-19.1 18.6-48.5 20-73 14.1zm-28.5 198.6c110.9 10.4 230.9 11.8 330.9-44.4 65.7-35.2 110.6-103.2 121-176.6 13.8-96.3-5.2-193.8-31.7-286.3-26.4-85.5-62.6-171-123.9-237.6-108-119.1-275.3-165.7-432-158.4-81.8 5.1-168 17.2-236.3 66.2-48 33.6-78.9 87.5-90.5 144.2-19.3 90-1.9 182.7 20.2 270.5 29.1 113.7 80.6 227 171.3 304.9 75.3 66.4 172.4 103.8 271 117.5zm873.8-1.2c41.9 6 83.7 24.4 126.5 14.2-8.1-31.3-16.7-62.5-24.8-93.9 44.4 27.1 89.3 54.9 139.9 69.1 80.3 23.6 170.2 35.8 249.5 1.7 30.5-18.8 57.6-45.1 70-79.4 26.3-68.5 9.3-143-3.9-212.5-38.8-179.7-82.5-358.5-110.8-540.3-3.5-15.4-4.4-41.2-26.3-40.3-43.5-3.5-87.3-.5-130.8-1.2-64 .4-127.8-3.8-191.7-4 40.9 181.7 88.8 362.3 116.2 546.8 3.7 32.1 7.1 77-28.6 92.4-43.3 15.4-87-6.9-126.4-23.2-45.3-196.2-85.1-393.6-123.9-591.2-1.2-28.3-36.3-19.5-55.1-21.5-96.2 2.8-192.3-2.3-288.4-2.7 2.5 53.6 23 104.5 33.2 156.9 54.9 227.9 107.8 457 134.3 690.3 79.9 15.7 161.3 22.4 241.1 38.8zm-2629.9-19.5c77.4 9.9 153.3 28.7 230.4 40.8 2.8-3.3 8.4-9.8 11.2-13-4.1-29.9-13.9-58.5-21.6-87.6 40.2 24.5 80.8 49.3 125.6 64.4 65.1 20.8 134.6 33.2 202.9 23.8 46.7-6.8 94.2-29.9 118.2-72.3 53.9-98.5 10.9-213.1-7.9-315.4-36.1-155-69.6-310.7-95.5-467.8-3.9-13.2-4-36.4-23.5-35.1-107.6-2.7-215.5.2-323.1-5.8 39.5 189 93.3 375.6 117.4 567.6 5.8 32.1-7.6 65.8-39.4 77.9-41.2 2.3-80.2-11.8-117.3-28.2-46.8-197.7-84.7-397.5-125.5-596.4-5.4-23.6-34.9-14.4-52.1-16.9-98 2.2-195.9-1.3-293.7-3.5 58 261.1 129.8 520 162.4 786.1 2.8 20.3 4.5 41 10.5 60.7 38.7 14.1 80.8 13.5 121 20.7zm1045.6 111.7c52 10.9 108.4 12.1 158.2-9 27.5-12.1 54.8-33.6 60.4-64.9 8.9-38.8-12.9-77.1-40.5-102.9-60.6-54.1-144-80-224.6-75.7-42.9 3.5-89.7 16.8-116.9 52.5-23.2 29.6-18.1 72.7 2.7 102.1 36.3 54 99.1 83.3 160.7 97.9zm-2640.4-353.6c67.5 297.5 134.6 595 201.3 892.6 141.9-10.4 284.6-2.1 426.8-4.7-73.6-257-135.8-517.2-202.4-776.1-23.6-85-32.4-173.1-47.8-259.7-13.5-77.7 13.8-172 90.1-207.1 100.5-42.8 224.5-15.5 302.3 59.9 78.8 76.5 102.4 188.6 128 291.1 66.7 298.8 130.5 598.2 195.4 897.3 120.1-10.7 240.9-3.5 361.4-5.1-77.5-277.3-144.4-557.4-215-836.5-34.4-136-65.4-276.4-139.3-397.5-61.4-101.5-159.2-178.2-269.3-220.8-151.3-58.5-316.7-71.4-477.3-58.5-102.2 9.7-208.2 31.6-292.5 93.6-60.9 43.9-94.6 117.1-102.2 190.5-7.2 54.4 4.8 108.7 11.3 162.5 8.3 59.7 13.6 120.1 29.2 178.5zm5526.2 671.4c-30.9-172.4-77.2-341.8-113.3-513.3 94.7.2 193.6-5.8 283 31.5 115.9 50.9 191 175.5 191.8 300.7 1.7 66.5-38.1 137.7-104.5 156.6-85.4 10.6-171.4 15.6-257 24.5zm-316.6 225.1c138.4-7.8 277.1-1.7 415.7-3.8 122.2 4.2 245.1 5.4 366.7-8.8 86.7-10.9 178.6-39.2 235.4-109.8 55.9-67 64.5-160 55.4-243.7-20.7-184.1-109.9-366.2-262.5-475.9-113.7-83.7-255.8-117.1-394.6-126.9-82.9-5.3-166.1-8.1-249.2-6.3-9.1-11.1-20.9-20.6-26.2-34.2-47.2-169.2-78.3-342.1-115.1-513.7-126.3 5.2-253 3.2-379.3 0 55.9 232.7 112.5 465.3 169 697.8 68.9 273.4 127.9 549.2 184.7 825.3" transform="matrix(.13333 0 0 -.13333 0 841.333)"/><path style="fill:#fff;fill-opacity:1;fill-rule:nonzero;stroke:none" d="M1643.48 6226.85c-186.4-94.3-341.3-254.4-420.1-448.8-28.5-68.7-41.3-142.2-58.9-214.1C787.277 3942.55 409.777 2321.15 32.578 699.746c-13.402-55.996-27-112.297-29.7-170C-6.02 395.449 35.18 255.348 128.274 156.148c96.602-105.5 242.004-155.199 382.801-154 761.406-.097 1522.806-1.003 2284.206.403 828.7-1.903 1657.4-.106 2486.1-.903 55.7.301 112.2.5 166.7 14.102 103.2-19.2 208.5-13.5 313-14.3h2190.4c110.1 0 222.4-4.7 329.5 25.698 245.2 68.403 456.2 250.7 559.4 483.5 39.1 84.899 53.8 177.899 75.9 268.102 379.4 1630.9 759 3261.9 1138.22 4892.9 34.8 147.5 17.1 312.9-73.42 437.8-89.1 127.9-245.7 197.3-399.3 198-796.7-.1-1593.4 0-2390.1 0-93.8-1-188.4 5.4-281.1-12.7-71.4 19.8-145.9 10.2-218.8 12.4-821.6-.7-1643.3 1.4-2464.8-1-751.9 2.1-1503.9.1-2255.8 1-113.8 1.5-226.1-30.5-327.7-80.3" transform="matrix(.13333 0 0 -.13333 0 841.333)"/><path style="fill:#ec1d25;fill-opacity:1;fill-rule:nonzero;stroke:none" d="M1643.48 6226.85c101.6 49.8 213.9 81.8 327.7 80.3 751.9-.9 1503.9 1.1 2255.8-1-362.8-33.4-682.3-329.7-746.1-688.1-121-521-242.2-1042-363.6-1562.9-44.8-15.1-85.4-39.9-125.6-64.4 7.7 29.1 17.5 57.7 21.6 87.6-2.8 3.2-8.4 9.7-11.2 13-77.1-12.1-153-30.9-230.4-40.8-40.2-7.2-82.3-6.6-121-20.7-6-19.7-7.7-40.4-10.5-60.7-32.6-266.1-104.4-525-162.4-786.1 97.8 2.2 195.7 5.7 293.7 3.5 17.2 2.5 46.7-6.7 52.1 16.9 40.8 198.9 78.7 398.7 125.5 596.4 37.1 16.4 76.1 30.5 117.3 28.2-108.5-448.5-209.8-898.8-315.4-1348-134.3-576.9-268.4-1153.9-402.7-1730.8-18.5-82.602-43.5-165-41.9-250.5-2.7-135.203 48.8-273.699 149.7-365.699 90.8-85.707 216-126.301 339.2-130.5-761.4-1.406-1522.8-.5-2284.206-.403-140.797-1.199-286.199 48.5-382.801 154C35.18 255.348-6.02 395.449 2.879 529.746c2.7 57.703 16.297 114.004 29.7 170C409.776 2321.15 787.276 3942.55 1164.48 5563.95c17.6 71.9 30.4 145.4 58.9 214.1 78.8 194.4 233.7 354.5 420.1 448.8zm-466.6-2418.2c-15.6-58.4-20.9-118.8-29.2-178.5-6.5-53.8-18.5-108.1-11.3-162.5 7.6-73.4 41.3-146.6 102.2-190.5 84.3-62 190.3-83.9 292.5-93.6 160.6-12.9 326 0 477.3 58.5 110.1 42.6 207.9 119.3 269.3 220.8 73.9 121.1 104.9 261.5 139.3 397.5 70.6 279.1 137.5 559.2 215 836.5-120.5 1.6-241.3-5.6-361.4 5.1-64.9-299.1-128.7-598.5-195.4-897.3-25.6-102.5-49.2-214.6-128-291.1-77.8-75.4-201.8-102.7-302.3-59.9-76.3 35.1-103.6 129.4-90.1 207.1 15.4 86.6 24.2 174.7 47.8 259.7 66.6 258.9 128.8 519.1 202.4 776.1-142.2 2.6-284.9-5.7-426.8 4.7-66.7-297.6-133.8-595.1-201.3-892.6" transform="matrix(.13333 0 0 -.13333 0 841.333)"/><path style="fill:#00559e;fill-opacity:1;fill-rule:nonzero;stroke:none" d="M4226.98 6306.15c821.5 2.4 1643.2.3 2464.8 1 72.9-2.2 147.4 7.4 218.8-12.4-309.8-72.7-576.7-324-646.7-637.4-123.2-532.2-247.3-1064.2-371.2-1596.2-79.3 34.1-169.2 21.9-249.5-1.7-50.6-14.2-95.5-42-139.9-69.1 8.1 31.4 16.7 62.6 24.8 93.9-42.8 10.2-84.6-8.2-126.5-14.2-79.8-16.4-161.2-23.1-241.1-38.8-26.5-233.3-79.4-462.4-134.3-690.3-10.2-52.4-30.7-103.3-33.2-156.9 96.1.4 192.2 5.5 288.4 2.7 18.8 2 53.9-6.8 55.1 21.5 38.8 197.6 78.6 395 123.9 591.2 39.4 16.3 83.1 38.6 126.4 23.2 35.7-15.4 32.3-60.3 28.6-92.4-27.4-184.5-75.3-365.1-116.2-546.8 63.9.2 127.7 4.4 191.7 4-23.6-87.5-41.7-176.3-63-264.4-16.4-75.2-38.1-149.4-48.9-225.7-14.1-10.4-28-21-41.9-31.6 10.6 46 20.9 92.2 31.5 138.2-94-.2-188-.3-282 .1-103.9-431.9-206.5-864.1-309.9-1296.2-7.9-41.9-22.8-84.4-17.8-127.4 20.9-36.3 58.4-67.2 101.7-69.6 63.5-6.5 127.4-5.9 191.2-6-50.5-215.1-100.2-430.401-150.6-645.6-22.2-90.902-28.6-186.801-9.4-278.902 21.8-101.801 76.1-197.496 157-263.797 57.6-48.403 127.6-79.406 199.3-100.801-54.5-13.602-111-13.8-166.7-14.102-828.7.797-1657.4-1-2486.1.903-123.2 4.199-248.4 44.793-339.2 130.5-100.9 92-152.4 230.496-149.7 365.699-1.6 85.5 23.4 167.898 41.9 250.5 134.3 576.9 268.4 1153.9 402.7 1730.8 105.6 449.2 206.9 899.5 315.4 1348 31.8-12.1 45.2-45.8 39.4-77.9-24.1-192-77.9-378.6-117.4-567.6 107.6 6 215.5 3.1 323.1 5.8 19.5-1.3 19.6 21.9 23.5 35.1 25.9 157.1 59.4 312.8 95.5 467.8 18.8 102.3 61.8 216.9 7.9 315.4-24 42.4-71.5 65.5-118.2 72.3-68.3 9.4-137.8-3-202.9-23.8 121.4 520.9 242.6 1041.9 363.6 1562.9 63.8 358.4 383.3 654.7 746.1 688.1zm-409.7-2143.9c-61.6-14.6-124.4-43.9-160.7-97.9-20.8-29.4-25.9-72.5-2.7-102.1 27.2-35.7 74-49 116.9-52.5 80.6-4.3 164 21.6 224.6 75.7 27.6 25.8 49.4 64.1 40.5 102.9-5.6 31.3-32.9 52.8-60.4 64.9-49.8 21.1-106.2 19.9-158.2 9zm710.5-91c-98.6-13.7-195.7-51.1-271-117.5-90.7-77.9-142.2-191.2-171.3-304.9-22.1-87.8-39.5-180.5-20.2-270.5 11.6-56.7 42.5-110.6 90.5-144.2 68.3-49 154.5-61.1 236.3-66.2 156.7-7.3 324 39.3 432 158.4 61.3 66.6 97.5 152.1 123.9 237.6 26.5 92.5 45.5 190 31.7 286.3-10.4 73.4-55.3 141.4-121 176.6-100 56.2-220 54.8-330.9 44.4zm-899.7-229.8c-20.6-136.1-41.7-272.3-74.8-406.1-16.7-85.3-55.9-164-74.4-248.9 43.9-6.4 88.2.6 132.4.6 74.3.1 148.6.6 223-.5 18.9 38.4 17.5 82.4 27.1 123.4 33.7 157.4 70.4 314.2 108 470.8 9.5 39.7 20.9 79.1 25.1 119.8-121.8-22-243.8-42.5-366.4-59.1zm824.9-1224.3c-28.4-49.5-93-32.6-139.8-35.3-15.6-64.9-31.1-129.7-46.7-194.6 58.1.9 116.3-2.1 174.3 1.3 50.7 3.4 96.1 27.5 142.2 46.7 30.3 11.5 51 37.7 73.9 59.4 149.8.8 299.5.5 449.3.2 16.7 66.1 31.7 132.7 48.1 198.9-109.6.3-219.1-.1-328.7.3 17.2 36.6 34.2 73.2 51.2 109.9-110.1-.2-220.1-.3-330.1 0-31.3-62.2-58.6-126.7-93.7-186.8zm-192.8-457.7c60.4 0 120.8.2 181.2-.3-12.8-54.3-26-108.4-38.5-162.8-61-.1-121.9-.1-182.8 0-15.6-67.3-32.1-134.4-48-201.6 60.4.6 120.8.3 181.2.4-26.4-119.1-57.4-237.1-84.2-356.1-10.2-34.3 12.6-65.2 33.2-90.2 28.1-35.4 77.3-39.7 119.1-43.5 130.4-.7 260.8 0 391.3-.2 16.6 73 34.9 145.6 52.3 218.4-78.5-6.4-157.4-32.1-236.1-15.8-15.2 4.9-45.2 8.9-36.1 32 18.8 86.2 40.4 171.7 61.5 257.4 108.8.1 217.6 0 326.5 0 15.1 66.6 31.6 132.8 47.5 199.2-108.9-.2-217.8.1-326.7-.2 13.2 54.4 25.7 109 39.1 163.3 107.2.1 214.4-.1 321.7.1 14.9 64.2 30.3 128.2 45.8 192.3-267.3 0-534.6-.5-801.8.2-16.3-63.9-31.3-128.3-46.2-192.6zm296.1 1713.2c24.5 5.9 53.9 4.5 73-14.1 22.6-27.5 23.2-65.3 21.8-99.1-5.2-71.2-22.3-140.9-42.2-209.2-18.8-60.3-41.1-126.3-95.8-163.6-30.9-22.2-80.4-22.3-103.8 11-27.2 38.5-17.8 88.9-13.4 132.7 14.1 79.5 32 159.1 61.7 234.5 19 45.3 47.7 94.5 98.7 107.8zm975.9-1282.8c3-4.3 9.1-12.7 12.1-16.9-6.6-60.3-28.9-117.9-36-178.4-10.6-8.6-21.7-16.9-32-25.8 19.9 73.4 32.2 148.8 55.9 221.1zm-76.7-308.1 24.7.8c-9.2-33.5-9-75.9-44.4-93.9 4.8 31.4 12.6 62.2 19.7 93.1zm-58.8-272.6c20.8-18.4 7-46.6 3.6-69.3-35.3-140.2-63.2-282.3-102-421.6-20.8 27.9-5.6 61.4.4 91.3 33.9 132.9 61.5 267.4 98 399.6" transform="matrix(.13333 0 0 -.13333 0 841.333)"/><path style="fill:#00898f;fill-opacity:1;fill-rule:nonzero;stroke:none" d="M6910.58 6294.75c92.7 18.1 187.3 11.7 281.1 12.7 796.7 0 1593.4-.1 2390.1 0 153.6-.7 310.2-70.1 399.3-198 90.52-124.9 108.22-290.3 73.42-437.8-379.22-1631-758.82-3262-1138.22-4892.9-22.1-90.203-36.8-183.203-75.9-268.102-103.2-232.8-314.2-415.097-559.4-483.5-107.1-30.398-219.4-25.699-329.5-25.699h-2190.4c-104.5.801-209.8-4.898-313 14.301-71.7 21.395-141.7 52.398-199.3 100.801-80.9 66.301-135.2 161.996-157 263.797-19.2 92.101-12.8 188 9.4 278.902 50.4 215.199 100.1 430.5 150.6 645.6 73.7-.2 147.5 0 221.2-.2 18.3 74.9 34.9 150.1 52.9 225.1-75.7-3.3-152.3-26.2-227.6-11.5 38.8 139.3 66.7 281.4 102 421.6 3.4 22.7 17.2 50.9-3.6 69.3 171.3-3.7 342.8-1.1 514.1-1.4 81.7-1.6 171.1 23.3 222.4 90.8 39.1 53.9 58 119.1 74.6 182.7 41.5 174.3 82.3 348.7 124.2 522.8-127 .4-254-4.8-381-2.3-78.3 3.5-155.4-13.4-230.9-31.9-52.2-12.4-98.5-40.9-141.1-72.5 10.8 76.3 32.5 150.5 48.9 225.7 21.3 88.1 39.4 176.9 63 264.4 43.5.7 87.3-2.3 130.8 1.2 21.9-.9 22.8 24.9 26.3 40.3 28.3 181.8 72 360.6 110.8 540.3 13.2 69.5 30.2 144 3.9 212.5-12.4 34.3-39.5 60.6-70 79.4 123.9 532 248 1064 371.2 1596.2 70 313.4 336.9 564.7 646.7 637.4zm-524.1-1589.6c-56.8-276.1-115.8-551.9-184.7-825.3-56.5-232.5-113.1-465.1-169-697.8 126.3 3.2 253 5.2 379.3 0 36.8 171.6 67.9 344.5 115.1 513.7 5.3 13.6 17.1 23.1 26.2 34.2 83.1-1.8 166.3 1 249.2 6.3 138.8 9.8 280.9 43.2 394.6 126.9 152.6 109.7 241.8 291.8 262.5 475.9 9.1 83.7.5 176.7-55.4 243.7-56.8 70.6-148.7 98.9-235.4 109.8-121.6 14.2-244.5 13-366.7 8.8-138.6 2.1-277.3-4-415.7 3.8zm2024.4-677.4c-21.7 1.7-24.6-22.4-19.5-38.3 17.1-87.8 25.6-176.9 36.8-265.6 23.3-172.5 44.8-345.3 61.9-518.6 1.1-15.8 3.1-33.1-6.9-46.8-75.9-125.4-140.6-257.4-222.5-379.3-28.1-38.7-46.1-85.9-82.2-118.1-32.9-10.4-67.9-6.3-101.8-7.1-14.8-66.4-29.3-132.9-44.4-199.3 69.8-1.4 139.5 2.5 209.3 3.2 99.5-2.1 189.4 63 230.1 151.9 274.8 481.8 549.3 963.8 823.4 1446 11.2 9.1 1.9 30.4-11.8 26-94.1-18-188-38.1-283.3-49.2-19.2-4.4-47.3-.3-54-24-30.3-67-59.5-134.6-95.4-198.8-26.6-47.2-52.8-94.5-74.6-144-7.1-12-9.9-30.8-26-33.5l6.4 14.8c-2.4 114.5-11.7 228.9-16.2 343.4-3.1 31.5 2.3 65.9-15.2 94.1-104.1-22.1-208.5-43.3-314.1-56.8zm-977.9-80.5c-93.6-73.7-150.4-184.3-180.8-297.6-26.5-97.6-47.2-202-21.4-302.1 15.2-61.6 58.2-115.1 114.3-144.5 69-36.1 148.7-52.6 226.3-43.5 54.7 7.5 102.1 38.6 144.9 71.7-3.6-20.6-11.6-41.5-6.9-62.7 110.7 7.6 221.7 6 332.6 6.4 15.1-2.2 28.7 8.1 27.6 23.9 44.3 276.1 110.1 548.1 176.5 819.5 3.6 16.4 5.1 33.2 7.1 49.8-114.4-20.5-229-39.7-344.2-55.4-25.3 1.7-26.6-24.8-30.7-42.9-36.1 55.6-98 100.4-166.7 96.2-103.1-5.8-199.5-54.6-278.6-118.8zm-781.3-1143.1c-94.6-412.9-192.4-825.2-288.6-1237.7-20.1.2-40.1.3-60 .5-15.2-65.9-31.8-131.5-46.8-197.4 197.1-.1 394.2-.1 591.3 0-4.9-21.5-9.7-43.1-14.5-64.7 97.4-.5 194.8.3 292.3-.4 5.6 21.7 11 43.4 16.6 65.1 26.7 0 53.4 0 80.2-.1-4.5-21.4-9-42.9-13.1-64.5 80.8 0 161.5-1 242.3.2 75.6 1.8 147.9 41.6 191.6 103 52.5 74.1 98.5 152.6 151.4 226.4 18.9-73.7 31.1-148.9 50.7-222.3 16-54 73.8-76.4 121.6-94.8 66.6-10.5 134.6-7.7 202-7.7 16.7 72.3 33.5 144.7 50.6 216.9-36 .2-72.8-2.2-107.8 7-16.6 3.7-15.8 23.7-20.4 36.4-16.5 77.1-35 153.7-51.5 230.7-46.2 1.2-92.5.5-138.7 1.1 18.3 24.6 37.1 48.9 56.1 72.9 114.7-.1 229.4 0 344.1-.1 13.3 58.4 27 116.7 41.2 174.8-106.5-.1-212.9.1-319.2-.1 12.6 52.7 25 105.5 38 158.1 106.2-.1 212.3.1 318.5-.1 16.1 65.5 31 131.2 46.8 196.8-317.3 0-634.5.2-951.8-.1-14.7-65.5-31.3-130.7-45.2-196.4 113.5-.7 227 .4 340.6-.6-14-52.3-25-105.4-39-157.7-115.1 0-230.1.6-345.2-.4-12.5-58.1-27.2-115.9-39.8-174.1 100.6-.5 201.1.3 301.7-.5-70.8-109.6-139.7-220.6-211.5-329.6-42.8-56.7-119.6-49.6-182.4-48 6.2 28.3 12.9 56.4 19.2 84.6-27.1.2-54.2.2-81.3.5 78.5 337.6 157.8 675 236.6 1012.6 33.9.4 67.8.4 101.8 0 17.7 68.9 33.5 138.3 50.7 207.3-153.9-1.4-307.9-5.7-461.2-18.9-71.2-4.4-133.8-42-191.2-81.1 8 34.1 15.5 68.3 23.1 102.4-99.9.1-199.9.1-299.8 0zm942.5-3.1c3.2-70.3 4.1-140.7 6.2-211 1-25.3 1.2-53 17.7-74 29-42.7 83.7-57.8 132.9-58.6 74.4-.5 148.7.6 223.1-.3 17.3 65.3 33.6 131 48.2 197.1-32.9 2.7-74.5-8.4-100.9 15-11.3 42.6-2.9 88.5-8.6 132.2-106.2-.2-212.4.5-318.6-.4zm-1691-944c-35.3-13.9-74.8-5.8-111.7-7.6.3 36.7-.4 73.4-3.1 110-90.7 0-181.4.1-272.1-.1 6.2-186.5 14.3-373.1 23.2-559.6-1.6-36.6 25.5-70.3 61-78 52.4-13.1 106.9-12.7 160.7-14.2 75 .3 150-1.3 225 1 14.8 68.8 32.5 137 47.3 205.8-60.6-3.1-121-8.7-181.5-10.4-24-2.7-52.3 14.5-52.5 40.5-4.3 50-4.6 100.2-8 150.2 66.4 4.9 133.2 3.1 199.6 9.7 59.9 7.8 120.2 47.4 137.2 107.7 15.7 51.7 18.4 106.1 26.9 159.2-72 .5-144 .1-216 .3-12-37.8-11.9-81.9-36-114.5zm799.9 2623c85.6-8.9 171.6-13.9 257-24.5 66.4-18.9 106.2-90.1 104.5-156.6-.8-125.2-75.9-249.8-191.8-300.7-89.4-37.3-188.3-31.3-283-31.5 36.1 171.5 82.4 340.9 113.3 513.3zm1012.8-626.7c37 12.6 83.3-2.9 99-40.3 35.6-72.5 10.5-154.7-7.6-228.4-17.5-61.8-25.4-130.9-70.1-180.6-32.9-31.1-79.4-50.5-124.9-46.9-39.1 5.4-59.2 45.8-58.9 81.9-2 86.2 23.4 170.1 46.3 252.4 20.3 63 46.8 139.3 116.2 161.9zm-811.7-1258.6c78.1-.1 156.2 0 234.3 0-14.5-62.3-28.5-124.8-43.5-187-87.9-2.8-171.3-31.3-249.9-68.7 18.9 85.4 40.3 170.3 59.1 255.7zm-1372-4.9c152.1-5.8 304.7-.4 457-2.8-8.6-35.8-17.3-71.7-25.8-107.6-109.7-4.7-223.4 14.6-329.1-23.1-44.8-14.3-86.5-36.4-126-61.8 7.1 60.5 29.4 118.1 36 178.4-3 4.2-9.1 12.6-12.1 16.9zm-52-307.3c144.2-.7 288.5 0 432.7-.3-8.2-30.1-16.2-60.3-24.1-90.5-151-2.6-302.2 3.7-453-3.1 35.4 18 35.2 60.4 44.4 93.9zm1333.5-77.5c78-.7 156 .1 234.1-.5-14.7-61.8-29.4-123.7-44.3-185.5-88.7-7.1-174.2-34.2-251.4-78.3 19.2 88.4 40.2 176.4 61.6 264.3zm-94.3-400.5c77.8.4 155.7 0 233.7.3-15.6-75.5-34-150.5-52-225.5-78 .2-156-.1-233.9.1 16.8 75.2 35.7 149.9 52.2 225.1" transform="matrix(.13333 0 0 -.13333 0 841.333)"/></svg>