<?xml version="1.0" encoding="UTF-8" standalone="no"?>
<!-- Created with Inkscape (http://www.inkscape.org/) -->

<svg
   version="1.1"
   id="svg2"
   xml:space="preserve"
   width="264"
   height="264"
   viewBox="0 0 264 264"
   sodipodi:docname="76e61b0431786a55880b4a9a5fb806f5.ai"
   xmlns:inkscape="http://www.inkscape.org/namespaces/inkscape"
   xmlns:sodipodi="http://sodipodi.sourceforge.net/DTD/sodipodi-0.dtd"
   xmlns="http://www.w3.org/2000/svg"
   xmlns:svg="http://www.w3.org/2000/svg"><defs
     id="defs6"><clipPath
       clipPathUnits="userSpaceOnUse"
       id="clipPath20"><path
         d="M 0,198 H 198 V 0 H 0 Z"
         id="path18" /></clipPath><clipPath
       clipPathUnits="userSpaceOnUse"
       id="clipPath60"><path
         d="M 0,198 H 198 V 0 H 0 Z"
         id="path58" /></clipPath><clipPath
       clipPathUnits="userSpaceOnUse"
       id="clipPath80"><path
         d="M 0,198 H 198 V 0 H 0 Z"
         id="path78" /></clipPath><clipPath
       clipPathUnits="userSpaceOnUse"
       id="clipPath120"><path
         d="M 0,198 H 198 V 0 H 0 Z"
         id="path118" /></clipPath><clipPath
       clipPathUnits="userSpaceOnUse"
       id="clipPath140"><path
         d="M 0,198 H 198 V 0 H 0 Z"
         id="path138" /></clipPath><clipPath
       clipPathUnits="userSpaceOnUse"
       id="clipPath180"><path
         d="M 0,198 H 198 V 0 H 0 Z"
         id="path178" /></clipPath><clipPath
       clipPathUnits="userSpaceOnUse"
       id="clipPath220"><path
         d="M 0,198 H 198 V 0 H 0 Z"
         id="path218" /></clipPath></defs><sodipodi:namedview
     id="namedview4"
     pagecolor="#ffffff"
     bordercolor="#666666"
     borderopacity="1.0"
     inkscape:pageshadow="2"
     inkscape:pageopacity="0.0"
     inkscape:pagecheckerboard="0" /><g
     id="g8"
     inkscape:groupmode="layer"
     inkscape:label="76e61b0431786a55880b4a9a5fb806f5"
     transform="matrix(1.3333333,0,0,-1.3333333,0,263.99999)"><path
       d="M 0,0.002 H 197.998 V 198 H 0 Z"
       style="fill:#ffffff;fill-opacity:1;fill-rule:nonzero;stroke:none"
       id="path10" /><path
       d="M 0,0.002 H 197.998 V 99.001 H 0 Z"
       style="fill:#1434cb;fill-opacity:1;fill-rule:nonzero;stroke:none"
       id="path12" /><g
       id="g14"><g
         id="g16"
         clip-path="url(#clipPath20)"><g
           id="g22"
           transform="translate(94.7119,170.3188)"><path
             d="M 0,0 -9.51,-44.461 H -21.013 L -11.502,0 Z m 48.392,-28.709 6.054,16.696 3.484,-16.696 z M 61.23,-44.461 H 71.866 L 62.574,0 h -9.811 c -2.211,0 -4.075,-1.282 -4.9,-3.259 L 30.604,-44.461 h 12.08 l 2.398,6.64 h 14.755 z m -30.027,14.515 c 0.05,11.734 -16.221,12.384 -16.112,17.627 0.035,1.593 1.555,3.29 4.877,3.724 1.647,0.212 6.192,0.384 11.344,-1.99 l 2.015,9.432 c -2.767,1.001 -6.328,1.965 -10.759,1.965 -11.371,0 -19.37,-6.04 -19.434,-14.696 -0.073,-6.401 5.714,-9.97 10.065,-12.102 4.486,-2.179 5.989,-3.576 5.967,-5.523 -0.031,-2.983 -3.577,-4.304 -6.879,-4.354 -5.786,-0.09 -9.14,1.564 -11.813,2.81 L -1.614,-42.8 c 2.692,-1.232 7.652,-2.304 12.788,-2.359 12.089,0 19.993,5.969 20.029,15.213 M -16.436,0 -35.073,-44.461 H -47.23 l -9.172,35.483 c -0.556,2.182 -1.041,2.984 -2.732,3.906 -2.766,1.502 -7.332,2.907 -11.347,3.781 L -70.209,0 h 19.572 c 2.493,0 4.736,-1.659 5.307,-4.531 l 4.845,-25.73 L -28.52,0 Z"
             style="fill:#1434cb;fill-opacity:1;fill-rule:nonzero;stroke:none"
             id="path24" /></g><g
           id="g26"
           transform="translate(46.1255,44.1699)"><path
             d="m 0,0 c 1.299,-0.767 3.331,-1.433 5.43,-1.433 2.598,0 4.063,1.233 4.063,3.065 0,1.699 -1.132,2.698 -3.964,3.73 -3.73,1.3 -6.095,3.298 -6.095,6.496 0,3.698 3.064,6.462 7.961,6.462 2.432,0 4.197,-0.533 5.363,-1.099 L 11.792,13.89 c -0.833,0.433 -2.398,1.066 -4.497,1.066 -2.598,0 -3.697,-1.366 -3.697,-2.698 0,-1.733 1.298,-2.531 4.297,-3.664 3.897,-1.499 5.762,-3.465 5.762,-6.662 0,-3.631 -2.731,-6.729 -8.494,-6.729 -2.398,0 -4.863,0.666 -6.096,1.399 z"
             style="fill:#ffffff;fill-opacity:1;fill-rule:nonzero;stroke:none"
             id="path28" /></g><g
           id="g30"
           transform="translate(75.708,49.666)"><path
             d="M 0,0 H -8.461 V -6.596 H 1 V -9.96 H -12.558 V 12.491 H 0.5 V 9.127 H -8.461 V 3.331 H 0 Z"
             style="fill:#ffffff;fill-opacity:1;fill-rule:nonzero;stroke:none"
             id="path32" /></g><g
           id="g34"
           transform="translate(96.064,40.3721)"><path
             d="m 0,0 c -0.966,-0.466 -3.098,-0.999 -5.829,-0.999 -7.129,0 -11.459,4.464 -11.459,11.292 0,7.394 5.163,11.825 12.025,11.825 2.698,0 4.597,-0.533 5.43,-0.966 l -0.866,-3.264 c -1.066,0.466 -2.565,0.866 -4.397,0.866 -4.564,0 -7.862,-2.865 -7.862,-8.261 0,-4.931 2.865,-8.061 7.828,-8.061 1.632,0 3.365,0.333 4.464,0.799 z"
             style="fill:#ffffff;fill-opacity:1;fill-rule:nonzero;stroke:none"
             id="path36" /></g><g
           id="g38"
           transform="translate(103.2959,62.1572)"><path
             d="m 0,0 v -13.091 c 0,-4.397 1.832,-6.429 4.597,-6.429 2.965,0 4.73,2.032 4.73,6.429 V 0 h 4.097 v -12.824 c 0,-6.929 -3.564,-9.993 -8.96,-9.993 -5.197,0 -8.561,2.897 -8.561,9.959 V 0 Z"
             style="fill:#ffffff;fill-opacity:1;fill-rule:nonzero;stroke:none"
             id="path40" /></g><g
           id="g42"
           transform="translate(125.1504,51.9307)"><path
             d="m 0,0 h 2.432 c 2.765,0 4.464,1.466 4.464,3.697 0,2.432 -1.699,3.598 -4.364,3.598 -1.3,0 -2.132,-0.1 -2.532,-0.2 z m -4.062,9.894 c 1.564,0.299 3.83,0.499 6.195,0.499 3.23,0 5.396,-0.533 6.928,-1.799 1.232,-1.032 1.931,-2.598 1.931,-4.531 0,-2.897 -1.965,-4.862 -4.096,-5.595 v -0.1 c 1.631,-0.599 2.598,-2.165 3.131,-4.33 0.733,-2.799 1.332,-5.396 1.766,-6.263 H 7.596 c -0.334,0.666 -0.901,2.498 -1.5,5.296 -0.666,2.932 -1.699,3.865 -4.03,3.931 H 0 v -9.227 h -4.062 z"
             style="fill:#ffffff;fill-opacity:1;fill-rule:nonzero;stroke:none"
             id="path44" /></g><g
           id="g46"
           transform="translate(152.2686,49.666)"><path
             d="m 0,0 h -8.461 v -6.596 h 9.46 V -9.96 H -12.558 V 12.491 H 0.499 V 9.127 h -8.96 V 3.331 H 0 Z"
             style="fill:#ffffff;fill-opacity:1;fill-rule:nonzero;stroke:none"
             id="path48" /></g></g></g><path
       d="M 0,0.002 H 197.998 V 198 H 0 Z"
       style="fill:#ffffff;fill-opacity:1;fill-rule:nonzero;stroke:none"
       id="path50" /><path
       d="M 0,0.002 H 197.998 V 99.001 H 0 Z"
       style="fill:#1434cb;fill-opacity:1;fill-rule:nonzero;stroke:none"
       id="path52" /><g
       id="g54"><g
         id="g56"
         clip-path="url(#clipPath60)"><g
           id="g62"
           transform="translate(94.7119,170.3188)"><path
             d="M 0,0 -9.51,-44.461 H -21.013 L -11.502,0 Z m 48.392,-28.709 6.054,16.696 3.484,-16.696 z M 61.23,-44.461 H 71.866 L 62.574,0 h -9.811 c -2.211,0 -4.075,-1.282 -4.9,-3.259 L 30.604,-44.461 h 12.08 l 2.398,6.64 h 14.755 z m -30.027,14.515 c 0.05,11.734 -16.221,12.384 -16.112,17.627 0.035,1.593 1.555,3.29 4.877,3.724 1.647,0.212 6.192,0.384 11.344,-1.99 l 2.015,9.432 c -2.767,1.001 -6.328,1.965 -10.759,1.965 -11.371,0 -19.37,-6.04 -19.434,-14.696 -0.073,-6.401 5.714,-9.97 10.065,-12.102 4.486,-2.179 5.989,-3.576 5.967,-5.523 -0.031,-2.983 -3.577,-4.304 -6.879,-4.354 -5.786,-0.09 -9.14,1.564 -11.813,2.81 L -1.614,-42.8 c 2.692,-1.232 7.652,-2.304 12.788,-2.359 12.089,0 19.993,5.969 20.029,15.213 M -16.436,0 -35.073,-44.461 H -47.23 l -9.172,35.483 c -0.556,2.182 -1.041,2.984 -2.732,3.906 -2.766,1.502 -7.332,2.907 -11.347,3.781 L -70.209,0 h 19.572 c 2.493,0 4.736,-1.659 5.307,-4.531 l 4.845,-25.73 L -28.52,0 Z"
             style="fill:#1434cb;fill-opacity:1;fill-rule:nonzero;stroke:none"
             id="path64" /></g></g></g><text
       transform="matrix(1,0,0,-1,39.1738,39.7305)"
       style="font-variant:normal;font-weight:600;font-stretch:normal;font-size:29.5px;font-family:'Visa Dialect Semibold';-inkscape-font-specification:VisaDialect-Semibold;writing-mode:lr-tb;fill:#ffffff;fill-opacity:1;fill-rule:nonzero;stroke:none"
       id="text68"><tspan
         x="0 18.8505 36.373501 57.112 79.767998 100.949"
         y="0"
         sodipodi:role="line"
         id="tspan66">SECURE</tspan></text><path
       d="M 0,0.002 H 197.998 V 198 H 0 Z"
       style="fill:#ffffff;fill-opacity:1;fill-rule:nonzero;stroke:none"
       id="path70" /><path
       d="M 0,0.002 H 197.998 V 99.001 H 0 Z"
       style="fill:#1434cb;fill-opacity:1;fill-rule:nonzero;stroke:none"
       id="path72" /><g
       id="g74"><g
         id="g76"
         clip-path="url(#clipPath80)"><g
           id="g82"
           transform="translate(94.7119,170.3188)"><path
             d="M 0,0 -9.51,-44.461 H -21.013 L -11.502,0 Z m 48.392,-28.709 6.054,16.696 3.484,-16.696 z M 61.23,-44.461 H 71.866 L 62.574,0 h -9.811 c -2.211,0 -4.075,-1.282 -4.9,-3.259 L 30.604,-44.461 h 12.08 l 2.398,6.64 h 14.755 z m -30.027,14.515 c 0.05,11.734 -16.221,12.384 -16.112,17.627 0.035,1.593 1.555,3.29 4.877,3.724 1.647,0.212 6.192,0.384 11.344,-1.99 l 2.015,9.432 c -2.767,1.001 -6.328,1.965 -10.759,1.965 -11.371,0 -19.37,-6.04 -19.434,-14.696 -0.073,-6.401 5.714,-9.97 10.065,-12.102 4.486,-2.179 5.989,-3.576 5.967,-5.523 -0.031,-2.983 -3.577,-4.304 -6.879,-4.354 -5.786,-0.09 -9.14,1.564 -11.813,2.81 L -1.614,-42.8 c 2.692,-1.232 7.652,-2.304 12.788,-2.359 12.089,0 19.993,5.969 20.029,15.213 M -16.436,0 -35.073,-44.461 H -47.23 l -9.172,35.483 c -0.556,2.182 -1.041,2.984 -2.732,3.906 -2.766,1.502 -7.332,2.907 -11.347,3.781 L -70.209,0 h 19.572 c 2.493,0 4.736,-1.659 5.307,-4.531 l 4.845,-25.73 L -28.52,0 Z"
             style="fill:#1434cb;fill-opacity:1;fill-rule:nonzero;stroke:none"
             id="path84" /></g><g
           id="g86"
           transform="translate(40.8848,54.3262)"><path
             d="m 0,0 c 0,1.476 0.349,2.733 1.047,3.776 0.698,1.042 1.672,1.844 2.921,2.405 1.248,0.56 2.699,0.84 4.351,0.84 1.711,0 3.058,-0.142 4.041,-0.427 0.984,-0.285 1.77,-0.595 2.361,-0.93 L 15.075,1.121 H 14.957 C 14.445,1.534 13.816,1.894 13.068,2.198 12.321,2.503 11.535,2.739 10.708,2.906 9.882,3.073 9.076,3.157 8.29,3.157 7.188,3.157 6.313,3.01 5.664,2.715 5.015,2.42 4.69,1.869 4.69,1.062 c 0,-0.609 0.148,-1.086 0.443,-1.43 0.295,-0.345 0.772,-0.635 1.431,-0.87 0.659,-0.237 1.529,-0.492 2.611,-0.768 1.061,-0.256 2.05,-0.526 2.964,-0.81 0.915,-0.287 1.711,-0.66 2.39,-1.122 0.679,-0.462 1.204,-1.082 1.578,-1.858 0.373,-0.777 0.56,-1.785 0.56,-3.024 0,-2.38 -0.767,-4.209 -2.3,-5.487 -1.534,-1.279 -3.678,-1.918 -6.431,-1.918 -0.905,0 -1.83,0.084 -2.773,0.251 -0.944,0.167 -1.83,0.399 -2.656,0.694 -0.825,0.295 -1.533,0.648 -2.123,1.061 l -0.325,4.573 h 0.148 c 0.983,-0.826 2.192,-1.485 3.628,-1.976 1.436,-0.492 2.881,-0.738 4.336,-0.738 1.24,0 2.154,0.192 2.744,0.575 0.59,0.384 0.885,0.978 0.885,1.785 0,0.57 -0.133,1.037 -0.398,1.401 C 11.136,-8.235 10.669,-7.916 10,-7.64 9.332,-7.365 8.388,-7.079 7.168,-6.784 6.244,-6.549 5.354,-6.288 4.499,-6.003 3.644,-5.718 2.876,-5.334 2.198,-4.853 1.52,-4.37 0.983,-3.741 0.59,-2.964 0.196,-2.188 0,-1.199 0,0"
             style="fill:#ffffff;fill-opacity:1;fill-rule:nonzero;stroke:none"
             id="path88" /></g><g
           id="g90"
           transform="translate(60.2661,38.5146)"><path
             d="M 0,0 V 22.42 H 14.897 V 18.319 H 5.044 V 13.54 h 7.729 V 9.588 H 5.044 V 4.101 h 9.853 V 0 Z"
             style="fill:#ffffff;fill-opacity:1;fill-rule:nonzero;stroke:none"
             id="path92" /></g><g
           id="g94"
           transform="translate(82.1548,49.7246)"><path
             d="m 0,0 c 0,-2.36 0.624,-4.204 1.874,-5.531 1.248,-1.327 2.994,-1.991 5.235,-1.991 1.574,0 2.877,0.24 3.91,0.722 1.032,0.482 1.961,1.097 2.787,1.844 h 0.118 l -0.531,-4.809 c -0.866,-0.511 -1.858,-0.949 -2.979,-1.312 -1.122,-0.363 -2.449,-0.546 -3.983,-0.546 -1.829,0 -3.462,0.295 -4.897,0.885 -1.436,0.59 -2.665,1.411 -3.687,2.464 -1.023,1.051 -1.8,2.286 -2.331,3.702 -0.531,1.416 -0.796,2.939 -0.796,4.572 0,1.632 0.265,3.156 0.796,4.572 0.531,1.416 1.303,2.651 2.316,3.702 1.013,1.052 2.242,1.874 3.688,2.464 1.445,0.59 3.072,0.885 4.881,0.885 1.535,0 2.848,-0.152 3.939,-0.457 1.091,-0.306 2.011,-0.733 2.758,-1.283 L 13.659,5.045 H 13.541 C 12.714,5.771 11.756,6.367 10.665,6.829 9.573,7.291 8.388,7.522 7.109,7.522 4.868,7.522 3.122,6.858 1.874,5.531 0.624,4.204 0,2.36 0,0"
             style="fill:#ffffff;fill-opacity:1;fill-rule:nonzero;stroke:none"
             id="path96" /></g><g
           id="g98"
           transform="translate(108.4385,42.3789)"><path
             d="M 0,0 C 1.73,0 3,0.379 3.807,1.136 4.612,1.893 5.016,3.127 5.016,4.838 V 18.556 H 9.264 V 4.572 c 0,-3.067 -0.817,-5.309 -2.449,-6.725 -1.632,-1.416 -4.002,-2.124 -7.11,-2.124 -3.088,0 -5.482,0.698 -7.183,2.094 -1.701,1.397 -2.551,3.638 -2.551,6.726 v 14.013 h 5.044 V 4.868 c 0,-1.731 0.388,-2.975 1.166,-3.732 C -3.043,0.379 -1.77,0 0,0"
             style="fill:#ffffff;fill-opacity:1;fill-rule:nonzero;stroke:none"
             id="path100" /></g><g
           id="g102"
           transform="translate(129.8262,57.0107)"><path
             d="M 0,0 H -3.6 V -6.46 H 0 c 1.199,0 2.095,0.236 2.685,0.708 0.589,0.472 0.884,1.317 0.884,2.537 0,1.18 -0.295,2.011 -0.884,2.492 C 2.095,-0.24 1.199,0 0,0 m -8.644,-18.496 v 22.42 h 10.06 c 1.494,0 2.802,-0.3 3.923,-0.9 C 6.46,2.424 7.325,1.598 7.936,0.546 8.545,-0.506 8.85,-1.721 8.85,-3.097 8.85,-4.592 8.466,-5.904 7.699,-7.035 6.933,-8.166 5.89,-8.968 4.572,-9.439 l 5.457,-9.057 H 4.248 l -4.721,8.378 H -3.6 v -8.378 z"
             style="fill:#ffffff;fill-opacity:1;fill-rule:nonzero;stroke:none"
             id="path104" /></g><g
           id="g106"
           transform="translate(142.3633,38.5146)"><path
             d="M 0,0 V 22.42 H 14.897 V 18.319 H 5.044 V 13.54 h 7.729 V 9.588 H 5.044 V 4.101 h 9.853 V 0 Z"
             style="fill:#ffffff;fill-opacity:1;fill-rule:nonzero;stroke:none"
             id="path108" /></g></g></g><path
       d="M 0,0.002 H 197.998 V 198 H 0 Z"
       style="fill:#ffffff;fill-opacity:1;fill-rule:nonzero;stroke:none"
       id="path110" /><path
       d="M 0,0.002 H 197.998 V 99.001 H 0 Z"
       style="fill:#1434cb;fill-opacity:1;fill-rule:nonzero;stroke:none"
       id="path112" /><g
       id="g114"><g
         id="g116"
         clip-path="url(#clipPath120)"><g
           id="g122"
           transform="translate(94.7119,170.3188)"><path
             d="M 0,0 -9.51,-44.461 H -21.013 L -11.502,0 Z m 48.392,-28.709 6.054,16.696 3.484,-16.696 z M 61.23,-44.461 H 71.866 L 62.574,0 h -9.811 c -2.211,0 -4.075,-1.282 -4.9,-3.259 L 30.604,-44.461 h 12.08 l 2.398,6.64 h 14.755 z m -30.027,14.515 c 0.05,11.734 -16.221,12.384 -16.112,17.627 0.035,1.593 1.555,3.29 4.877,3.724 1.647,0.212 6.192,0.384 11.344,-1.99 l 2.015,9.432 c -2.767,1.001 -6.328,1.965 -10.759,1.965 -11.371,0 -19.37,-6.04 -19.434,-14.696 -0.073,-6.401 5.714,-9.97 10.065,-12.102 4.486,-2.179 5.989,-3.576 5.967,-5.523 -0.031,-2.983 -3.577,-4.304 -6.879,-4.354 -5.786,-0.09 -9.14,1.564 -11.813,2.81 L -1.614,-42.8 c 2.692,-1.232 7.652,-2.304 12.788,-2.359 12.089,0 19.993,5.969 20.029,15.213 M -16.436,0 -35.073,-44.461 H -47.23 l -9.172,35.483 c -0.556,2.182 -1.041,2.984 -2.732,3.906 -2.766,1.502 -7.332,2.907 -11.347,3.781 L -70.209,0 h 19.572 c 2.493,0 4.736,-1.659 5.307,-4.531 l 4.845,-25.73 L -28.52,0 Z"
             style="fill:#1434cb;fill-opacity:1;fill-rule:nonzero;stroke:none"
             id="path124" /></g></g></g><text
       transform="matrix(1,0,0,-1,39.6216,39.75)"
       style="font-variant:normal;font-weight:500;font-stretch:normal;font-size:29.5px;font-family:'Visa Dialect Medium';-inkscape-font-specification:VisaDialect-Medium;writing-mode:lr-tb;fill:#ffffff;fill-opacity:1;fill-rule:nonzero;stroke:none"
       id="text128"><tspan
         x="0 18.2605 35.577 56.521999 79.0895 99.680496"
         y="0"
         sodipodi:role="line"
         id="tspan126">SECURE</tspan></text><path
       d="M 0,0.002 H 197.998 V 198 H 0 Z"
       style="fill:#ffffff;fill-opacity:1;fill-rule:nonzero;stroke:none"
       id="path130" /><path
       d="M 0,0.002 H 197.998 V 99.001 H 0 Z"
       style="fill:#1434cb;fill-opacity:1;fill-rule:nonzero;stroke:none"
       id="path132" /><g
       id="g134"><g
         id="g136"
         clip-path="url(#clipPath140)"><g
           id="g142"
           transform="translate(94.7119,170.3188)"><path
             d="M 0,0 -9.51,-44.461 H -21.013 L -11.502,0 Z m 48.392,-28.709 6.054,16.696 3.484,-16.696 z M 61.23,-44.461 H 71.866 L 62.574,0 h -9.811 c -2.211,0 -4.075,-1.282 -4.9,-3.259 L 30.604,-44.461 h 12.08 l 2.398,6.64 h 14.755 z m -30.027,14.515 c 0.05,11.734 -16.221,12.384 -16.112,17.627 0.035,1.593 1.555,3.29 4.877,3.724 1.647,0.212 6.192,0.384 11.344,-1.99 l 2.015,9.432 c -2.767,1.001 -6.328,1.965 -10.759,1.965 -11.371,0 -19.37,-6.04 -19.434,-14.696 -0.073,-6.401 5.714,-9.97 10.065,-12.102 4.486,-2.179 5.989,-3.576 5.967,-5.523 -0.031,-2.983 -3.577,-4.304 -6.879,-4.354 -5.786,-0.09 -9.14,1.564 -11.813,2.81 L -1.614,-42.8 c 2.692,-1.232 7.652,-2.304 12.788,-2.359 12.089,0 19.993,5.969 20.029,15.213 M -16.436,0 -35.073,-44.461 H -47.23 l -9.172,35.483 c -0.556,2.182 -1.041,2.984 -2.732,3.906 -2.766,1.502 -7.332,2.907 -11.347,3.781 L -70.209,0 h 19.572 c 2.493,0 4.736,-1.659 5.307,-4.531 l 4.845,-25.73 L -28.52,0 Z"
             style="fill:#1434cb;fill-opacity:1;fill-rule:nonzero;stroke:none"
             id="path144" /></g><g
           id="g146"
           transform="translate(41.6729,55.0049)"><path
             d="M 0,0 C 0,1.416 0.344,2.615 1.033,3.599 1.721,4.582 2.66,5.324 3.85,5.826 5.04,6.327 6.382,6.578 7.876,6.578 9.548,6.578 10.88,6.416 11.874,6.092 12.867,5.767 13.629,5.437 14.16,5.104 L 14.426,1.386 H 14.337 C 13.845,1.799 13.241,2.163 12.523,2.478 11.805,2.792 11.043,3.043 10.237,3.229 9.43,3.417 8.633,3.51 7.847,3.51 6.608,3.51 5.605,3.309 4.838,2.905 4.071,2.502 3.688,1.799 3.688,0.796 c 0,-0.767 0.181,-1.367 0.545,-1.799 0.364,-0.434 0.91,-0.787 1.638,-1.062 0.727,-0.276 1.632,-0.561 2.713,-0.856 1.023,-0.275 1.982,-0.556 2.877,-0.841 0.894,-0.285 1.676,-0.659 2.345,-1.121 0.669,-0.462 1.195,-1.072 1.578,-1.829 0.384,-0.757 0.575,-1.726 0.575,-2.905 0,-2.282 -0.742,-4.028 -2.227,-5.237 -1.485,-1.209 -3.565,-1.814 -6.239,-1.814 -1.337,0 -2.684,0.183 -4.041,0.546 -1.357,0.363 -2.459,0.851 -3.305,1.46 l -0.235,3.747 H 0 c 0.983,-0.826 2.164,-1.476 3.54,-1.947 1.377,-0.472 2.763,-0.708 4.16,-0.708 2.969,0 4.454,1.022 4.454,3.068 0,0.727 -0.167,1.317 -0.501,1.77 -0.335,0.452 -0.876,0.831 -1.623,1.135 -0.747,0.305 -1.721,0.615 -2.92,0.93 -0.944,0.255 -1.839,0.53 -2.685,0.825 C 3.58,-5.546 2.822,-5.163 2.154,-4.69 1.485,-4.219 0.959,-3.609 0.575,-2.862 0.192,-2.114 0,-1.161 0,0"
             style="fill:#ffffff;fill-opacity:1;fill-rule:nonzero;stroke:none"
             id="path148" /></g><g
           id="g150"
           transform="translate(60.5825,38.75)"><path
             d="M 0,0 V 22.42 H 14.455 V 19.175 H 3.953 v -5.988 h 8.289 V 10.06 H 3.953 V 3.245 H 14.455 V 0 Z"
             style="fill:#ffffff;fill-opacity:1;fill-rule:nonzero;stroke:none"
             id="path152" /></g><g
           id="g154"
           transform="translate(81.0254,49.96)"><path
             d="m 0,0 c 0,-1.691 0.31,-3.167 0.929,-4.425 0.619,-1.259 1.509,-2.232 2.67,-2.921 1.16,-0.688 2.556,-1.032 4.189,-1.032 1.671,0 3.058,0.251 4.159,0.752 1.101,0.502 2.065,1.155 2.891,1.962 h 0.089 l -0.413,-3.924 c -0.866,-0.59 -1.888,-1.076 -3.068,-1.46 -1.18,-0.384 -2.557,-0.575 -4.13,-0.575 -1.77,0 -3.358,0.3 -4.764,0.899 -1.407,0.601 -2.607,1.426 -3.599,2.479 -0.994,1.052 -1.751,2.286 -2.272,3.702 -0.521,1.416 -0.782,2.931 -0.782,4.543 0,1.632 0.261,3.151 0.782,4.558 0.521,1.406 1.278,2.635 2.272,3.687 0.992,1.052 2.187,1.878 3.584,2.479 1.396,0.599 2.969,0.899 4.72,0.899 1.573,0 2.93,-0.162 4.071,-0.486 1.14,-0.325 2.114,-0.792 2.921,-1.402 l 0.412,-4.012 h -0.088 c -0.826,0.806 -1.8,1.45 -2.921,1.932 C 10.531,8.137 9.223,8.378 7.729,8.378 6.096,8.378 4.705,8.034 3.555,7.346 2.404,6.657 1.523,5.684 0.915,4.425 0.305,3.166 0,1.691 0,0"
             style="fill:#ffffff;fill-opacity:1;fill-rule:nonzero;stroke:none"
             id="path156" /></g><g
           id="g158"
           transform="translate(108.4307,41.7002)"><path
             d="m 0,0 c 2.025,0 3.5,0.437 4.425,1.312 0.924,0.876 1.387,2.365 1.387,4.47 V 19.47 H 9.115 V 5.575 C 9.115,2.429 8.323,0.152 6.74,-1.254 5.157,-2.66 2.851,-3.363 -0.177,-3.363 c -3.01,0 -5.349,0.698 -7.021,2.094 -1.672,1.397 -2.508,3.677 -2.508,6.844 V 19.47 h 3.953 V 5.87 c 0,-2.104 0.447,-3.609 1.343,-4.514 C -3.516,0.452 -2.046,0 0,0"
             style="fill:#ffffff;fill-opacity:1;fill-rule:nonzero;stroke:none"
             id="path160" /></g><g
           id="g162"
           transform="translate(129.8184,58.043)"><path
             d="M 0,0 H -4.455 V -7.552 H 0 c 1.435,0 2.473,0.31 3.111,0.929 0.64,0.62 0.959,1.568 0.959,2.847 0,1.278 -0.319,2.227 -0.959,2.846 C 2.473,-0.31 1.435,0 0,0 m -8.408,-19.293 v 22.42 h 9.47 C 2.536,3.127 3.81,2.832 4.882,2.242 5.953,1.652 6.774,0.841 7.345,-0.191 7.915,-1.225 8.2,-2.39 8.2,-3.688 8.2,-5.222 7.777,-6.56 6.932,-7.699 6.086,-8.84 4.936,-9.598 3.48,-9.971 l 5.753,-9.322 H 4.69 l -5.192,8.791 h -3.953 v -8.791 z"
             style="fill:#ffffff;fill-opacity:1;fill-rule:nonzero;stroke:none"
             id="path164" /></g><g
           id="g166"
           transform="translate(142.001,38.75)"><path
             d="M 0,0 V 22.42 H 14.455 V 19.175 H 3.953 v -5.988 h 8.29 V 10.06 H 3.953 V 3.245 H 14.455 V 0 Z"
             style="fill:#ffffff;fill-opacity:1;fill-rule:nonzero;stroke:none"
             id="path168" /></g></g></g><path
       d="M 0,0.002 H 197.998 V 198 H 0 Z"
       style="fill:#ffffff;fill-opacity:1;fill-rule:nonzero;stroke:none"
       id="path170" /><path
       d="M 0,0.002 H 197.998 V 99.001 H 0 Z"
       style="fill:#1434cb;fill-opacity:1;fill-rule:nonzero;stroke:none"
       id="path172" /><g
       id="g174"><g
         id="g176"
         clip-path="url(#clipPath180)"><g
           id="g182"
           transform="translate(94.7119,170.3188)"><path
             d="M 0,0 -9.51,-44.461 H -21.013 L -11.502,0 Z m 48.392,-28.709 6.054,16.696 3.484,-16.696 z M 61.23,-44.461 H 71.866 L 62.574,0 h -9.811 c -2.211,0 -4.075,-1.282 -4.9,-3.259 L 30.604,-44.461 h 12.08 l 2.398,6.64 h 14.755 z m -30.027,14.515 c 0.05,11.734 -16.221,12.384 -16.112,17.627 0.035,1.593 1.555,3.29 4.877,3.724 1.647,0.212 6.192,0.384 11.344,-1.99 l 2.015,9.432 c -2.767,1.001 -6.328,1.965 -10.759,1.965 -11.371,0 -19.37,-6.04 -19.434,-14.696 -0.073,-6.401 5.714,-9.97 10.065,-12.102 4.486,-2.179 5.989,-3.576 5.967,-5.523 -0.031,-2.983 -3.577,-4.304 -6.879,-4.354 -5.786,-0.09 -9.14,1.564 -11.813,2.81 L -1.614,-42.8 c 2.692,-1.232 7.652,-2.304 12.788,-2.359 12.089,0 19.993,5.969 20.029,15.213 M -16.436,0 -35.073,-44.461 H -47.23 l -9.172,35.483 c -0.556,2.182 -1.041,2.984 -2.732,3.906 -2.766,1.502 -7.332,2.907 -11.347,3.781 L -70.209,0 h 19.572 c 2.493,0 4.736,-1.659 5.307,-4.531 l 4.845,-25.73 L -28.52,0 Z"
             style="fill:#1434cb;fill-opacity:1;fill-rule:nonzero;stroke:none"
             id="path184" /></g><g
           id="g186"
           transform="translate(45.3994,54.0244)"><path
             d="m 0,0 c 0,1.375 0.325,2.548 0.976,3.52 0.65,0.971 1.558,1.718 2.723,2.241 1.164,0.522 2.516,0.784 4.056,0.784 1.595,0 2.85,-0.134 3.767,-0.399 0.917,-0.266 1.65,-0.555 2.2,-0.867 l 0.33,-4.234 h -0.11 c -0.477,0.385 -1.063,0.719 -1.76,1.004 -0.697,0.284 -1.43,0.504 -2.2,0.66 C 9.212,2.864 8.46,2.942 7.727,2.942 6.7,2.942 5.885,2.805 5.28,2.529 4.675,2.255 4.372,1.741 4.372,0.99 c 0,-0.569 0.138,-1.013 0.413,-1.334 0.275,-0.321 0.719,-0.592 1.334,-0.811 0.613,-0.22 1.425,-0.458 2.433,-0.715 0.99,-0.238 1.911,-0.491 2.764,-0.757 0.852,-0.266 1.595,-0.614 2.227,-1.045 0.633,-0.431 1.124,-1.008 1.472,-1.732 0.348,-0.725 0.522,-1.663 0.522,-2.819 0,-2.218 -0.715,-3.923 -2.145,-5.115 -1.43,-1.191 -3.428,-1.787 -5.995,-1.787 -0.843,0 -1.705,0.078 -2.585,0.233 -0.88,0.156 -1.705,0.371 -2.475,0.647 -0.77,0.274 -1.43,0.604 -1.98,0.99 l -0.302,4.262 h 0.137 c 0.917,-0.77 2.044,-1.384 3.383,-1.842 1.338,-0.459 2.685,-0.687 4.042,-0.687 1.155,0 2.008,0.178 2.558,0.536 0.55,0.357 0.825,0.912 0.825,1.664 0,0.531 -0.124,0.967 -0.372,1.305 -0.247,0.339 -0.683,0.637 -1.306,0.894 -0.623,0.257 -1.503,0.522 -2.64,0.798 C 5.82,-6.105 4.991,-5.862 4.193,-5.597 3.396,-5.331 2.681,-4.974 2.048,-4.524 1.416,-4.075 0.917,-3.488 0.55,-2.764 0.183,-2.04 0,-1.119 0,0"
             style="fill:#ffffff;fill-opacity:1;fill-rule:nonzero;stroke:none"
             id="path188" /></g><g
           id="g190"
           transform="translate(63.4663,39.2842)"><path
             d="M 0,0 V 20.9 H 13.888 V 17.077 H 4.703 v -4.455 h 7.205 V 8.938 H 4.703 V 3.822 h 9.185 V 0 Z"
             style="fill:#ffffff;fill-opacity:1;fill-rule:nonzero;stroke:none"
             id="path192" /></g><g
           id="g194"
           transform="translate(83.5962,49.7344)"><path
             d="m 0,0 c 0,-2.2 0.582,-3.919 1.746,-5.156 1.164,-1.238 2.791,-1.857 4.881,-1.857 1.467,0 2.682,0.225 3.644,0.674 0.962,0.449 1.829,1.022 2.599,1.719 h 0.11 l -0.495,-4.483 c -0.807,-0.477 -1.733,-0.884 -2.777,-1.223 -1.046,-0.339 -2.283,-0.509 -3.713,-0.509 -1.705,0 -3.227,0.274 -4.565,0.825 -1.339,0.55 -2.485,1.315 -3.438,2.296 -0.953,0.981 -1.677,2.131 -2.172,3.451 -0.495,1.321 -0.743,2.741 -0.743,4.263 0,1.521 0.248,2.942 0.743,4.263 0.495,1.319 1.214,2.469 2.159,3.451 0.944,0.98 2.089,1.746 3.437,2.296 1.348,0.55 2.864,0.825 4.551,0.825 1.43,0 2.654,-0.143 3.672,-0.427 1.017,-0.284 1.874,-0.682 2.571,-1.196 l 0.522,-4.51 H 12.623 C 11.853,5.38 10.958,5.936 9.941,6.366 8.924,6.797 7.819,7.013 6.627,7.013 4.537,7.013 2.91,6.394 1.746,5.156 0.582,3.919 0,2.2 0,0"
             style="fill:#ffffff;fill-opacity:1;fill-rule:nonzero;stroke:none"
             id="path196" /></g><g
           id="g198"
           transform="translate(108.0986,42.8867)"><path
             d="M 0,0 C 1.612,0 2.795,0.353 3.547,1.059 4.299,1.765 4.674,2.915 4.674,4.51 V 17.298 H 8.635 V 4.263 c 0,-2.861 -0.762,-4.95 -2.283,-6.271 -1.522,-1.319 -3.731,-1.979 -6.627,-1.979 -2.879,0 -5.112,0.65 -6.697,1.952 -1.586,1.302 -2.379,3.391 -2.379,6.27 v 13.063 h 4.703 V 4.537 c 0,-1.613 0.362,-2.772 1.085,-3.478 C -2.838,0.353 -1.65,0 0,0"
             style="fill:#ffffff;fill-opacity:1;fill-rule:nonzero;stroke:none"
             id="path200" /></g><g
           id="g202"
           transform="translate(128.0352,56.5264)"><path
             d="M 0,0 H -3.354 V -6.022 H 0 c 1.118,0 1.952,0.22 2.503,0.66 0.55,0.44 0.824,1.228 0.824,2.365 0,1.1 -0.274,1.874 -0.824,2.323 C 1.952,-0.225 1.118,0 0,0 m -8.058,-17.242 v 20.9 H 1.32 c 1.393,0 2.613,-0.28 3.658,-0.839 C 6.022,2.26 6.829,1.489 7.397,0.509 7.966,-0.472 8.25,-1.604 8.25,-2.887 8.25,-4.28 7.893,-5.505 7.178,-6.559 6.463,-7.613 5.49,-8.359 4.263,-8.8 L 9.35,-17.242 H 3.96 l -4.4,7.809 h -2.914 v -7.809 z"
             style="fill:#ffffff;fill-opacity:1;fill-rule:nonzero;stroke:none"
             id="path204" /></g><g
           id="g206"
           transform="translate(139.1719,39.2842)"><path
             d="M 0,0 V 20.9 H 13.888 V 17.077 H 4.703 v -4.455 h 7.204 V 8.938 H 4.703 V 3.822 h 9.185 V 0 Z"
             style="fill:#ffffff;fill-opacity:1;fill-rule:nonzero;stroke:none"
             id="path208" /></g></g></g><path
       d="M 0.013,0 H 198 V 197.972 H 0.013 Z"
       style="fill:#ffffff;fill-opacity:1;fill-rule:nonzero;stroke:none"
       id="path210" /><path
       d="M 0.013,0 H 198 V 98.971 H 0.013 Z"
       style="fill:#1434cb;fill-opacity:1;fill-rule:nonzero;stroke:none"
       id="path212" /><g
       id="g214"><g
         id="g216"
         clip-path="url(#clipPath220)"><g
           id="g222"
           transform="translate(95.3271,170.29)"><path
             d="M 0,0 -9.51,-44.461 H -21.013 L -11.502,0 Z m 48.393,-28.71 6.054,16.698 3.484,-16.698 z M 61.232,-44.461 H 71.868 L 62.575,0 h -9.81 c -2.212,0 -4.076,-1.282 -4.901,-3.259 l -17.26,-41.202 h 12.081 l 2.398,6.64 h 14.755 z m -30.029,14.515 c 0.051,11.734 -16.22,12.384 -16.112,17.627 0.036,1.593 1.555,3.29 4.878,3.724 1.646,0.213 6.191,0.384 11.344,-1.99 l 2.015,9.433 c -2.767,1 -6.329,1.964 -10.759,1.964 -11.372,0 -19.371,-6.04 -19.435,-14.696 -0.072,-6.401 5.715,-9.97 10.065,-12.102 4.487,-2.179 5.989,-3.577 5.968,-5.524 -0.031,-2.983 -3.578,-4.303 -6.879,-4.353 -5.787,-0.09 -9.141,1.564 -11.814,2.81 L -1.613,-42.8 c 2.692,-1.232 7.651,-2.304 12.787,-2.36 12.089,0 19.994,5.97 20.029,15.214 M -16.436,0 -35.073,-44.461 h -12.158 l -9.172,35.483 c -0.556,2.182 -1.041,2.984 -2.732,3.906 -2.766,1.503 -7.332,2.907 -11.347,3.782 L -70.21,0 h 19.573 c 2.492,0 4.736,-1.659 5.306,-4.53 L -40.486,-30.261 -28.52,0 Z"
             style="fill:#1434cb;fill-opacity:1;fill-rule:nonzero;stroke:none"
             id="path224" /></g><g
           id="g226"
           transform="translate(41.374,55.25)"><path
             d="M 0,0 C 0,1.416 0.344,2.615 1.033,3.599 1.721,4.582 2.66,5.324 3.85,5.826 5.04,6.327 6.382,6.578 7.876,6.578 9.548,6.578 10.88,6.416 11.874,6.092 12.867,5.767 13.629,5.437 14.16,5.104 L 14.426,1.386 H 14.337 C 13.845,1.799 13.241,2.163 12.523,2.478 11.805,2.792 11.043,3.043 10.237,3.229 9.43,3.417 8.633,3.51 7.847,3.51 6.608,3.51 5.605,3.309 4.838,2.905 4.071,2.502 3.688,1.799 3.688,0.796 c 0,-0.767 0.181,-1.367 0.545,-1.799 0.364,-0.434 0.91,-0.787 1.638,-1.062 0.727,-0.276 1.632,-0.561 2.713,-0.856 1.023,-0.275 1.982,-0.556 2.877,-0.841 0.894,-0.285 1.676,-0.659 2.345,-1.121 0.669,-0.462 1.195,-1.072 1.578,-1.829 0.384,-0.757 0.575,-1.726 0.575,-2.905 0,-2.282 -0.742,-4.028 -2.227,-5.237 -1.485,-1.209 -3.565,-1.814 -6.239,-1.814 -1.337,0 -2.684,0.183 -4.041,0.546 -1.357,0.363 -2.459,0.851 -3.305,1.46 l -0.235,3.747 H 0 c 0.983,-0.826 2.164,-1.476 3.54,-1.947 1.377,-0.472 2.763,-0.708 4.16,-0.708 2.969,0 4.454,1.022 4.454,3.068 0,0.727 -0.167,1.317 -0.501,1.77 -0.335,0.452 -0.876,0.831 -1.623,1.135 -0.747,0.305 -1.721,0.615 -2.92,0.93 -0.944,0.255 -1.839,0.53 -2.685,0.825 C 3.58,-5.546 2.822,-5.163 2.154,-4.69 1.485,-4.219 0.959,-3.609 0.575,-2.862 0.192,-2.114 0,-1.161 0,0"
             style="fill:#ffffff;fill-opacity:1;fill-rule:nonzero;stroke:none"
             id="path228" /></g><g
           id="g230"
           transform="translate(60.2837,38.9951)"><path
             d="M 0,0 V 22.42 H 14.455 V 19.175 H 3.953 v -5.988 h 8.29 V 10.06 H 3.953 V 3.245 H 14.455 V 0 Z"
             style="fill:#ffffff;fill-opacity:1;fill-rule:nonzero;stroke:none"
             id="path232" /></g><g
           id="g234"
           transform="translate(80.7271,50.2051)"><path
             d="m 0,0 c 0,-1.691 0.31,-3.167 0.929,-4.425 0.619,-1.259 1.509,-2.232 2.67,-2.921 1.16,-0.688 2.556,-1.032 4.189,-1.032 1.671,0 3.058,0.251 4.16,0.752 1.101,0.502 2.065,1.155 2.891,1.962 h 0.088 l -0.413,-3.924 c -0.866,-0.59 -1.888,-1.076 -3.068,-1.46 -1.18,-0.384 -2.557,-0.575 -4.13,-0.575 -1.77,0 -3.358,0.3 -4.764,0.899 -1.407,0.601 -2.607,1.426 -3.599,2.479 -0.994,1.052 -1.751,2.286 -2.272,3.702 -0.521,1.416 -0.782,2.931 -0.782,4.543 0,1.632 0.261,3.151 0.782,4.558 0.521,1.406 1.278,2.635 2.272,3.687 0.992,1.052 2.187,1.878 3.584,2.479 1.396,0.599 2.969,0.899 4.72,0.899 1.573,0 2.93,-0.162 4.071,-0.486 1.141,-0.325 2.114,-0.792 2.921,-1.402 L 14.662,5.723 H 14.573 C 13.747,6.529 12.774,7.173 11.653,7.655 10.531,8.137 9.223,8.378 7.729,8.378 6.096,8.378 4.705,8.034 3.555,7.346 2.404,6.657 1.523,5.684 0.915,4.425 0.305,3.166 0,1.691 0,0"
             style="fill:#ffffff;fill-opacity:1;fill-rule:nonzero;stroke:none"
             id="path236" /></g><g
           id="g238"
           transform="translate(108.1328,41.9453)"><path
             d="m 0,0 c 2.025,0 3.5,0.437 4.425,1.312 0.924,0.876 1.387,2.365 1.387,4.47 V 19.47 H 9.115 V 5.575 C 9.115,2.429 8.323,0.152 6.74,-1.254 5.157,-2.66 2.851,-3.363 -0.177,-3.363 c -3.01,0 -5.349,0.698 -7.021,2.094 -1.672,1.397 -2.508,3.677 -2.508,6.844 V 19.47 h 3.953 V 5.87 c 0,-2.104 0.447,-3.609 1.343,-4.514 C -3.516,0.452 -2.046,0 0,0"
             style="fill:#ffffff;fill-opacity:1;fill-rule:nonzero;stroke:none"
             id="path240" /></g><g
           id="g242"
           transform="translate(129.5205,58.2881)"><path
             d="M 0,0 H -4.455 V -7.552 H 0 c 1.435,0 2.473,0.31 3.111,0.929 0.641,0.62 0.96,1.568 0.96,2.847 0,1.278 -0.319,2.227 -0.96,2.846 C 2.473,-0.31 1.435,0 0,0 m -8.408,-19.293 v 22.42 h 9.47 C 2.536,3.127 3.811,2.832 4.883,2.242 5.954,1.652 6.775,0.841 7.346,-0.191 7.916,-1.225 8.201,-2.39 8.201,-3.688 8.201,-5.222 7.778,-6.56 6.933,-7.699 6.087,-8.84 4.937,-9.598 3.48,-9.971 l 5.754,-9.322 H 4.691 l -5.193,8.791 h -3.953 v -8.791 z"
             style="fill:#ffffff;fill-opacity:1;fill-rule:nonzero;stroke:none"
             id="path244" /></g><g
           id="g246"
           transform="translate(141.7041,38.9951)"><path
             d="M 0,0 V 22.42 H 14.455 V 19.175 H 3.953 v -5.988 h 8.29 V 10.06 H 3.953 V 3.245 H 14.455 V 0 Z"
             style="fill:#ffffff;fill-opacity:1;fill-rule:nonzero;stroke:none"
             id="path248" /></g></g></g></g></svg>
