<svg xmlns="http://www.w3.org/2000/svg" height="93.013" width="288" xml:space="preserve"><defs><linearGradient id="b" spreadMethod="pad" gradientTransform="matrix(2160 0 0 -2160 0 348.789)" gradientUnits="userSpaceOnUse" y2="0" x2="1" y1="0" x1="0"><stop offset="0" style="stop-opacity:1;stop-color:#222357"/><stop offset="1" style="stop-opacity:1;stop-color:#254aa5"/></linearGradient><clipPath id="a" clipPathUnits="userSpaceOnUse"><path d="M1069.49 685.242 925.16 10.551H750.602l144.382 674.691zm734.32-435.633 91.88 253.329 52.89-253.329zm194.76-239.058H2160l-140.91 674.691h-148.97c-33.51 0-61.76-19.469-74.3-49.48L1533.93 10.551h183.23l36.41 100.797h223.91zM1543 230.852c.78 178.043-246.22 187.878-244.52 267.433.54 24.192 23.58 49.914 74.03 56.504 24.97 3.258 93.94 5.785 172.07-30.176l30.67 143.055c-42.03 15.258-96.04 29.914-163.3 29.914-172.5 0-293.94-91.719-294.91-223.016-1.15-97.171 86.66-151.324 152.82-183.632 67.97-33.063 90.77-54.274 90.52-83.84-.51-45.293-54.24-65.254-104.47-66.039-87.75-1.364-138.68 23.718-179.26 42.633l-31.6-147.852C1085.79 17.125 1161.07.8 1239.14 0c183.37 0 303.29 90.543 303.86 230.852m-722.91 454.39L537.301 10.551H352.813L213.648 549.004c-8.453 33.148-15.777 45.316-41.464 59.258C130.23 631.055 60.949 652.414 0 665.68l4.113 19.562h297.004c37.832 0 71.891-25.168 80.485-68.777l73.5-390.434 181.656 459.211z"/></clipPath></defs><g clip-path="url(#a)" transform="matrix(.13333 0 0 -.13333 0 93.013)"><path style="fill:url(#b);fill-opacity:1;fill-rule:nonzero;stroke:none" d="M1069.49 685.242 925.16 10.551H750.602l144.382 674.691zm734.32-435.633 91.88 253.329 52.89-253.329zm194.76-239.058H2160l-140.91 674.691h-148.97c-33.51 0-61.76-19.469-74.3-49.48L1533.93 10.551h183.23l36.41 100.797h223.91zM1543 230.852c.78 178.043-246.22 187.878-244.52 267.433.54 24.192 23.58 49.914 74.03 56.504 24.97 3.258 93.94 5.785 172.07-30.176l30.67 143.055c-42.03 15.258-96.04 29.914-163.3 29.914-172.5 0-293.94-91.719-294.91-223.016-1.15-97.171 86.66-151.324 152.82-183.632 67.97-33.063 90.77-54.274 90.52-83.84-.51-45.293-54.24-65.254-104.47-66.039-87.75-1.364-138.68 23.718-179.26 42.633l-31.6-147.852C1085.79 17.125 1161.07.8 1239.14 0c183.37 0 303.29 90.543 303.86 230.852m-722.91 454.39L537.301 10.551H352.813L213.648 549.004c-8.453 33.148-15.777 45.316-41.464 59.258C130.23 631.055 60.949 652.414 0 665.68l4.113 19.562h297.004c37.832 0 71.891-25.168 80.485-68.777l73.5-390.434 181.656 459.211H820.09"/></g></svg>