<?xml version="1.0" encoding="UTF-8" standalone="no"?>
<svg
   xmlns:dc="http://purl.org/dc/elements/1.1/"
   xmlns:cc="http://creativecommons.org/ns#"
   xmlns:rdf="http://www.w3.org/1999/02/22-rdf-syntax-ns#"
   xmlns:svg="http://www.w3.org/2000/svg"
   xmlns="http://www.w3.org/2000/svg"
   viewBox="0 0 240 135.92"
   height="135.92"
   width="240"
   xml:space="preserve"
   id="svg2"
   version="1.1"><metadata
     id="metadata8"><rdf:RDF><cc:Work
         rdf:about=""><dc:format>image/svg+xml</dc:format><dc:type
           rdf:resource="http://purl.org/dc/dcmitype/StillImage" /></cc:Work></rdf:RDF></metadata><defs
     id="defs6" /><g
     transform="matrix(1.3333333,0,0,-1.3333333,0,135.92)"
     id="g10"><g
       transform="scale(0.1)"
       id="g12"><path
         id="path14"
         style="fill:#1b54a2;fill-opacity:1;fill-rule:evenodd;stroke:none"
         d="m 1206.88,81.168 45.43,265.676 h 72.56 L 1279.43,81.168 h -72.55 v 0" /><path
         id="path16"
         style="fill:#1b54a2;fill-opacity:1;fill-rule:evenodd;stroke:none"
         d="m 1542.17,340.242 c -14.29,5.137 -37.01,10.996 -64.87,10.996 -71.81,0 -122.01,-35.91 -122.38,-87.578 -0.37,-38.117 35.92,-59.367 63.4,-72.187 28.2,-13.196 37.73,-21.25 37.37,-32.981 0,-17.957 -22.35,-26.015 -43.24,-26.015 -28.95,0 -44.34,4.023 -68.15,13.918 l -9.53,4.402 -9.9,-59.3634 c 16.86,-7.6953 48,-13.9258 80.62,-14.2891 76.22,0 125.32,35.5395 126.05,90.8715 0.37,30.047 -19.05,53.132 -60.83,72.195 -25.28,12.09 -40.67,20.148 -40.67,32.609 0,11.356 13.19,23.086 41.41,23.086 23.82,0.36 41.04,-4.765 54.23,-10.265 l 6.61,-2.93 9.88,57.531 v 0" /><path
         id="path18"
         style="fill:#1b54a2;fill-opacity:1;fill-rule:evenodd;stroke:none"
         d="m 1638.54,175.348 c 5.86,15.019 28.95,74.023 28.95,74.023 -0.73,-0.742 5.87,15.383 9.53,25.285 l 4.77,-22.726 c 0,0 13.91,-63.387 16.85,-76.582 h -60.1 z m 89.41,171.125 h -56.06 c -17.22,0 -30.41,-4.77 -38.11,-21.985 L 1526.42,80.8086 h 75.85 c 0,0 12.46,32.9764 15.39,39.9374 8.42,0 82.09,0 92.71,0 2.2,-9.156 8.79,-39.9374 8.79,-39.9374 h 67.06 l -58.27,265.6644 v 0" /><path
         id="path20"
         style="fill:#1b54a2;fill-opacity:1;fill-rule:evenodd;stroke:none"
         d="m 1146.42,346.473 -71.09,-181.02 -7.33,36.645 c -13.2,42.507 -54.6,88.308 -100.402,111.394 L 1032.46,81.168 h 76.58 l 113.97,265.305 h -76.59 v 0" /><path
         id="path22"
         style="fill:#f89c0e;fill-opacity:1;fill-rule:evenodd;stroke:none"
         d="M 1009.73,346.844 H 892.836 l -0.727,-5.871 C 982.617,318.992 1043.09,265.855 1068,202.098 l -25.66,122.019 c -4.39,16.856 -16.85,21.992 -32.61,22.727 v 0" /><path
         id="path24"
         style="fill:#1b54a2;fill-opacity:1;fill-rule:evenodd;stroke:none"
         d="m 850.371,718.758 h 77.715 L 880.238,417.215 h -77.715 l 47.848,301.543 v 0" /><path
         id="path26"
         style="fill:#1b54a2;fill-opacity:1;fill-rule:evenodd;stroke:none"
         d="m 649.316,658.805 -12.007,-75.653 h 22.472 c 21.84,0 42.508,17.02 45.938,37.832 v 0 c 3.426,20.801 -11.637,37.821 -33.477,37.821 h -22.926 z m -68.195,59.961 h 118.981 c 75.699,0 95.359,-43.594 87.093,-95.653 -6.898,-43.488 -38.14,-72.5 -78.715,-82.812 l 75.364,-123.078 h -97.555 l -56.519,118.41 -18.786,-118.41 h -77.707 l 47.844,301.543 v 0" /><path
         id="path28"
         style="fill:#1b54a2;fill-opacity:1;fill-rule:evenodd;stroke:none"
         d="m 1205.24,718.758 h 77.71 l -47.83,-301.543 h -77.72 l 47.84,301.543 v 0" /><path
         id="path30"
         style="fill:#1b54a2;fill-opacity:1;fill-rule:evenodd;stroke:none"
         d="m 1341.99,718.766 h 170.62 l -10.41,-65.567 h -92.9 l -8.18,-51.531 h 88.31 l -10.4,-65.559 h -88.31 l -8.46,-53.328 h 92.9 l -10.39,-65.558 h -170.63 l 47.85,301.543 v 0" /><path
         id="path32"
         style="fill:#1b54a2;fill-opacity:1;fill-rule:evenodd;stroke:none"
         d="m 364.309,718.766 h 170.609 l -10.406,-65.567 h -92.895 l -8.179,-51.531 h 88.316 l -10.406,-65.559 h -88.313 l -8.465,-53.328 h 92.907 L 487.07,417.223 H 316.461 l 47.848,301.543 v 0" /><path
         id="path34"
         style="fill:#1b54a2;fill-opacity:1;fill-rule:evenodd;stroke:none"
         d="m 986.914,718.766 h 172.536 l -10.41,-65.567 h -94.82 l -8.3,-51.531 h 86.29 l -10.45,-65.559 h -86.23 l -18.87,-118.886 h -77.597 l 47.851,301.543 v 0" /><path
         id="path36"
         style="fill:#1b54a2;fill-opacity:1;fill-rule:evenodd;stroke:none"
         d="m 1625.64,653.199 c 5.62,0 10.95,0 16.06,0 59.39,0 82.62,-41.894 76.21,-82.312 -8.61,-54.211 -47.6,-88.106 -98.53,-88.106 -6.8,0 -13.34,0 -20.79,0 l 27.05,170.418 z m -67.31,65.567 h 101.28 c 120.64,0 148.14,-91.25 138.69,-150.848 -13.51,-85.137 -89.41,-150.695 -186.54,-150.695 h -101.27 l 47.84,301.543 v 0" /><path
         id="path38"
         style="fill:#1b54a2;fill-opacity:1;fill-rule:evenodd;stroke:none"
         d="m 0,759.84 h 143.754 l 17.074,-219.063 c 95.113,164.629 191.785,323.047 289.156,478.653 h 46.887 C 393.777,820.633 292.004,620.535 193.422,417.215 H 87.8828 L 62.1641,658.805 C 55.7773,718.766 43.6602,744.227 0,750.68 v 9.16 0" /><path
         id="path40"
         style="fill:#f89c0e;fill-opacity:1;fill-rule:evenodd;stroke:none"
         d="M 54.4336,884.422 176.996,832.469 187.641,695.984 h 9.062 l 111.262,188.348 v 9.453 H 54.4102 l 0.0234,-9.363 v 0" /><path
         id="path42"
         style="fill:#1b54a2;fill-opacity:1;fill-rule:evenodd;stroke:none"
         d="m 558.305,346.324 h 50.3 L 591.656,227.477 c 14.36,13.859 31.934,22.433 51.559,22.433 40.359,0 66.82,-38.887 59.683,-86.867 -7.128,-47.988 -45.168,-86.9258 -85.519,-86.9258 -19.899,0 -34.164,8.9687 -43.879,24.0428 L 570.816,81.3242 H 520.52 l 37.785,264.9998 z m 62.773,-145.078 c 18.586,0 31.219,-17.031 28.199,-38.027 -3.004,-20.985 -20.507,-38.02 -39.089,-38.02 -18.586,0 -31.211,17.035 -28.208,38.02 3.008,20.996 20.52,38.027 39.098,38.027 v 0" /><path
         id="path44"
         style="fill:#1b54a2;fill-opacity:1;fill-rule:evenodd;stroke:none"
         d="m 707.219,245.867 h 60.355 l 26.989,-84.23 52.433,84.23 h 58.317 L 752.258,0 h -58.32 l 64.539,103.68 -51.258,142.187 v 0" /></g></g></svg>