<svg width="20" height="20" viewBox="0 0 20 20" fill="none" xmlns="http://www.w3.org/2000/svg">
<path d="M15.9201 4.96242C16.0054 4.87538 16.1072 4.80623 16.2196 4.75902C16.3319 4.71181 16.4526 4.6875 16.5745 4.6875C16.6963 4.6875 16.817 4.71181 16.9294 4.75902C17.0417 4.80623 17.1435 4.87538 17.2288 4.96242C17.5863 5.32367 17.5913 5.90742 17.2413 6.27492L9.8501 15.0124C9.76618 15.1046 9.66434 15.1786 9.55082 15.2301C9.4373 15.2815 9.31447 15.3093 9.18986 15.3116C9.06524 15.3139 8.94146 15.2908 8.82609 15.2437C8.71071 15.1965 8.60617 15.1264 8.51885 15.0374L4.02135 10.4799C3.84789 10.303 3.75073 10.0652 3.75073 9.81742C3.75073 9.56967 3.84789 9.33181 4.02135 9.15492C4.10665 9.06787 4.20847 8.99873 4.32083 8.95152C4.4332 8.90431 4.55385 8.88 4.67572 8.88C4.7976 8.88 4.91825 8.90431 5.03061 8.95152C5.14297 8.99873 5.24479 9.06787 5.3301 9.15492L9.1451 13.0212L15.8951 4.98992C15.9029 4.98026 15.9112 4.97107 15.9201 4.96242Z" fill="#EEEEEE"/>
</svg>
