<svg width="20" height="21" viewBox="0 0 20 21" fill="none" xmlns="http://www.w3.org/2000/svg">
<path d="M12.9833 10.4999C12.9833 12.1499 11.6499 13.4833 9.99993 13.4833C8.34993 13.4833 7.0166 12.1499 7.0166 10.4999C7.0166 8.84993 8.34993 7.5166 9.99993 7.5166C11.6499 7.5166 12.9833 8.84993 12.9833 10.4999Z" stroke="#023E8A" stroke-width="1.5" stroke-linecap="round" stroke-linejoin="round"/>
<path d="M10.0001 17.3918C12.9418 17.3918 15.6834 15.6584 17.5918 12.6584C18.3418 11.4834 18.3418 9.50843 17.5918 8.33343C15.6834 5.33343 12.9418 3.6001 10.0001 3.6001C7.05845 3.6001 4.31678 5.33343 2.40845 8.33343C1.65845 9.50843 1.65845 11.4834 2.40845 12.6584C4.31678 15.6584 7.05845 17.3918 10.0001 17.3918Z" stroke="#023E8A" stroke-width="1.5" stroke-linecap="round" stroke-linejoin="round"/>
</svg>
